<svg width="16" height="16" viewBox="0 0 16 16" fill="none" xmlns="http://www.w3.org/2000/svg">
<path d="M7.77441 0.25C9.18066 0.25 10.4932 0.5625 11.6807 1.1875C12.8682 1.8125 13.7744 2.65625 14.4619 3.71875C15.1494 4.84375 15.5244 6.125 15.5244 7.5C15.5244 8.84375 15.1182 9.875 14.3057 10.625C13.4307 11.4375 12.1807 11.8438 10.5557 11.8438C10.1182 11.8438 9.74316 11.75 9.49316 11.5C9.24316 11.2812 9.11816 10.9688 9.11816 10.5312C8.83691 10.9375 8.49316 11.2812 8.05566 11.5312C7.52441 11.8438 6.99316 12 6.43066 12C5.52441 12 4.83691 11.75 4.33691 11.1875C3.83691 10.6562 3.58691 9.90625 3.58691 8.9375C3.58691 8 3.77441 7.125 4.21191 6.34375C4.58691 5.625 5.08691 5.0625 5.71191 4.625C6.33691 4.21875 7.02441 4 7.74316 4C8.27441 4 8.74316 4.125 9.14941 4.375C9.55566 4.625 9.86816 4.9375 10.0557 5.34375C10.0557 5.15625 10.0869 4.9375 10.1494 4.6875L10.1807 4.5625C10.1807 4.46875 10.2119 4.40625 10.2744 4.34375C10.3369 4.28125 10.4307 4.25 10.5244 4.25H10.9307C11.0244 4.25 11.1182 4.3125 11.2119 4.40625C11.2744 4.5 11.3057 4.59375 11.3057 4.6875L10.2744 9.8125C10.2119 10.1875 10.2119 10.4688 10.3057 10.625C10.3994 10.8125 10.5869 10.875 10.8994 10.875C11.9307 10.875 12.7744 10.5938 13.4619 10.0312C14.1494 9.4375 14.5244 8.59375 14.5244 7.5C14.5244 6.3125 14.2119 5.21875 13.5869 4.21875C12.9932 3.28125 12.1807 2.5625 11.1494 2.03125C10.1182 1.53125 8.99316 1.25 7.77441 1.25C6.52441 1.25 5.39941 1.5625 4.36816 2.15625C3.33691 2.78125 2.52441 3.59375 1.93066 4.625C1.30566 5.65625 1.02441 6.78125 1.02441 8C1.02441 9.25 1.30566 10.375 1.93066 11.4062C2.52441 12.4375 3.33691 13.25 4.36816 13.8438C5.39941 14.4688 6.52441 14.75 7.77441 14.75C8.46191 14.75 9.18066 14.6562 9.86816 14.4062C10.5557 14.1875 11.1807 13.875 11.7744 13.4375C11.8369 13.375 11.9307 13.375 12.0244 13.375C12.1182 13.4062 12.2119 13.4375 12.2744 13.5L12.4307 13.6875C12.4932 13.7812 12.4932 13.875 12.4932 14C12.4932 14.125 12.4307 14.1875 12.3682 14.25C11.6807 14.75 10.9619 15.125 10.1807 15.375C9.39941 15.625 8.58691 15.75 7.77441 15.75C6.36816 15.75 5.08691 15.4062 3.89941 14.7188C2.71191 14.0312 1.74316 13.0625 1.05566 11.875C0.368164 10.6875 0.0244141 9.40625 0.0244141 8C0.0244141 6.625 0.368164 5.3125 1.05566 4.125C1.74316 2.9375 2.71191 2 3.89941 1.3125C5.08691 0.625 6.36816 0.25 7.77441 0.25ZM6.58691 10.9688C7.14941 10.9688 7.68066 10.7812 8.18066 10.375C8.61816 10 8.96191 9.53125 9.21191 8.9375C9.46191 8.34375 9.61816 7.75 9.61816 7.125C9.61816 6.5 9.46191 6 9.14941 5.625C8.83691 5.25 8.36816 5.0625 7.80566 5.0625C7.30566 5.0625 6.80566 5.21875 6.33691 5.53125C5.86816 5.84375 5.49316 6.28125 5.21191 6.84375C4.89941 7.46875 4.77441 8.125 4.77441 8.84375C4.77441 9.53125 4.93066 10.0312 5.24316 10.4062C5.55566 10.7812 6.02441 10.9688 6.58691 10.9688Z" fill="white" fill-opacity="0.4"/>
</svg>
