<svg width="53" height="27" viewBox="0 0 53 27" fill="none" xmlns="http://www.w3.org/2000/svg">
<path d="M45.5312 0.125C47.5 0.125 49.1406 0.863281 50.6172 2.25781C52.0117 3.73438 52.75 5.375 52.75 7.34375V19.1562C52.75 21.125 52.0117 22.8477 50.6172 24.2422C49.1406 25.7188 47.5 26.375 45.5312 26.375H7.46875C5.5 26.375 3.77734 25.7188 2.38281 24.2422C0.90625 22.8477 0.25 21.125 0.25 19.1562V7.34375C0.25 5.375 0.90625 3.73438 2.38281 2.25781C3.77734 0.863281 5.5 0.125 7.46875 0.125H45.5312ZM7.46875 22.4375H16V4.0625H7.46875C6.48438 4.0625 5.74609 4.39062 5.08984 5.04688C4.43359 5.70312 4.1875 6.44141 4.1875 7.34375V19.1562C4.1875 20.1406 4.43359 20.8789 5.08984 21.5352C5.74609 22.1914 6.48438 22.4375 7.46875 22.4375ZM22.5625 15.2188C21.9883 15.2188 21.4961 15.4648 21.168 15.793C20.7578 16.2031 20.5938 16.6953 20.5938 17.1875C20.5938 17.7617 20.7578 18.2539 21.168 18.582C21.4961 18.9922 21.9883 19.1562 22.5625 19.1562C23.0547 19.1562 23.5469 18.9922 23.957 18.582C24.2852 18.2539 24.5312 17.7617 24.5312 17.1875C24.5312 16.6953 24.2852 16.2031 23.957 15.793C23.5469 15.4648 23.0547 15.2188 22.5625 15.2188ZM20.5938 9.3125C20.5938 9.88672 20.7578 10.3789 21.168 10.707C21.4961 11.1172 21.9883 11.2812 22.5625 11.2812C23.0547 11.2812 23.5469 11.1172 23.957 10.707C24.2852 10.3789 24.5312 9.88672 24.5312 9.3125C24.5312 8.82031 24.2852 8.32812 23.957 7.91797C23.5469 7.58984 23.0547 7.34375 22.5625 7.34375C21.9883 7.34375 21.4961 7.58984 21.168 7.91797C20.7578 8.32812 20.5938 8.82031 20.5938 9.3125ZM28.4688 17.1875C28.4688 17.7617 28.6328 18.2539 29.043 18.582C29.3711 18.9922 29.8633 19.1562 30.4375 19.1562C30.9297 19.1562 31.4219 18.9922 31.832 18.582C32.1602 18.2539 32.4062 17.7617 32.4062 17.1875C32.4062 16.6953 32.1602 16.2031 31.832 15.793C31.4219 15.4648 30.9297 15.2188 30.4375 15.2188C29.8633 15.2188 29.3711 15.4648 29.043 15.793C28.6328 16.2031 28.4688 16.6953 28.4688 17.1875ZM30.4375 11.2812C30.9297 11.2812 31.4219 11.1172 31.832 10.707C32.1602 10.3789 32.4062 9.88672 32.4062 9.3125C32.4062 8.82031 32.1602 8.32812 31.832 7.91797C31.4219 7.58984 30.9297 7.34375 30.4375 7.34375C29.8633 7.34375 29.3711 7.58984 29.043 7.91797C28.6328 8.32812 28.4688 8.82031 28.4688 9.3125C28.4688 9.88672 28.6328 10.3789 29.043 10.707C29.3711 11.1172 29.8633 11.2812 30.4375 11.2812ZM48.8125 19.1562V7.34375C48.8125 6.44141 48.4844 5.70312 47.8281 5.04688C47.1719 4.39062 46.4336 4.0625 45.5312 4.0625H37V22.4375H45.5312C46.4336 22.4375 47.1719 22.1914 47.8281 21.5352C48.4844 20.8789 48.8125 20.1406 48.8125 19.1562Z" fill="url(#paint0_linear)"/>
<defs>
<linearGradient id="paint0_linear" x1="53" y1="-8" x2="16.2476" y2="42.5942" gradientUnits="userSpaceOnUse">
<stop stop-color="#0072FF"/>
<stop offset="0.767956" stop-color="#00C6FF"/>
</linearGradient>
</defs>
</svg>
