<svg width="45" height="43" viewBox="0 0 45 43" fill="none" xmlns="http://www.w3.org/2000/svg">
<path d="M42.1875 18.9531C43.0078 19.7734 43.582 20.6758 44.0742 21.6602C44.5664 22.6445 44.8125 23.7109 44.8125 24.7773C44.8125 26.1719 44.4844 27.4844 43.8281 28.6328C43.1719 29.7812 42.3516 30.7656 41.2031 31.4219C41.2031 33.3906 40.4648 35.1133 39.1523 36.5078C37.7578 37.9023 36.1172 38.6406 34.1484 38.6406C33.4922 39.7891 32.5898 40.6914 31.4414 41.3477C30.293 42.0039 29.1445 42.25 27.9141 42.25C26.8477 42.25 25.8633 42.0859 24.9609 41.6758C23.9766 41.2656 23.1562 40.6914 22.5 39.8711C21.7617 40.6914 20.9414 41.2656 20.0391 41.6758C19.0547 42.0859 18.0703 42.25 17.0859 42.25C15.7734 42.25 14.625 42.0039 13.4766 41.3477C12.3281 40.6914 11.5078 39.7891 10.8516 38.6406C8.88281 38.6406 7.16016 37.9023 5.84766 36.5078C4.45312 35.1133 3.79688 33.3906 3.79688 31.4219C2.64844 30.7656 1.74609 29.7812 1.08984 28.6328C0.433594 27.4844 0.1875 26.1719 0.1875 24.7773C0.1875 23.7109 0.351562 22.6445 0.84375 21.6602C1.33594 20.6758 1.99219 19.7734 2.8125 18.9531C2.64844 18.3789 2.56641 17.7227 2.56641 17.0664C2.56641 15.7539 2.89453 14.5234 3.55078 13.375C4.20703 12.2266 5.02734 11.2422 6.17578 10.5039C6.17578 8.86328 6.66797 7.46875 7.73438 6.23828C8.80078 5.00781 10.1133 4.26953 11.6719 3.94141C12.2461 2.79297 13.0664 1.89062 14.1328 1.23438C15.1992 0.578125 16.4297 0.25 17.7422 0.25C19.5469 0.25 21.1875 0.90625 22.5 2.21875C23.8125 0.90625 25.3711 0.25 27.2578 0.25C28.5703 0.25 29.7188 0.578125 30.7852 1.23438C31.8516 1.89062 32.6719 2.79297 33.3281 3.94141C34.8047 4.26953 36.1172 5.00781 37.1836 6.23828C38.25 7.46875 38.8242 8.86328 38.8242 10.5039C39.9727 11.2422 40.793 12.2266 41.4492 13.375C42.1055 14.5234 42.4336 15.7539 42.4336 17.0664C42.4336 17.7227 42.3516 18.3789 42.1875 18.9531ZM20.5312 11.5703V6.97656C20.5312 6.23828 20.2031 5.58203 19.7109 5.00781C19.1367 4.51562 18.4805 4.1875 17.7422 4.1875C17.0859 4.1875 16.5117 4.43359 16.0195 4.76172C15.5273 5.17188 15.1992 5.66406 15.0352 6.32031L14.625 7.87891L12.7383 7.71484C12 7.71484 11.3438 8.04297 10.8516 8.61719C10.3594 9.19141 10.1133 9.84766 10.1133 10.5039C10.1133 10.75 10.1953 11.2422 10.3594 11.9805L10.6055 12.8008L9.04688 13.375C8.22656 13.7852 7.48828 14.3594 6.99609 15.1797C6.33984 16.3281 6.33984 17.5586 6.99609 18.7891L7.73438 20.4297L6.17578 21.4141C5.19141 21.9883 4.61719 22.7266 4.28906 23.7109C3.96094 24.6953 4.04297 25.5977 4.45312 26.5C4.86328 27.4844 5.60156 28.1406 6.58594 28.4688L8.14453 29.125C7.81641 30.4375 7.73438 31.1758 7.73438 31.3398C7.73438 32.4062 8.14453 33.3086 8.96484 33.9648C9.78516 34.6211 10.6875 34.8672 11.6719 34.7031L13.3945 34.375L13.4766 34.7852C13.8047 35.9336 14.2148 36.6719 14.543 37.082C15.1992 37.9023 16.0195 38.3125 17.0859 38.3125C18.0703 38.3125 18.8906 37.9844 19.5469 37.3281C20.2031 36.6719 20.5312 35.9336 20.5312 34.9492V17.0664C19.5469 17.8867 18.4805 18.3789 17.332 18.625C17.168 18.707 17.0039 18.707 16.8398 18.543C16.6758 18.3789 16.5938 18.2148 16.5938 17.9688V16.6562C16.5938 16.3281 16.6758 16.1641 17.0039 16C17.9883 15.7539 18.8906 15.1797 19.5469 14.3594C20.2031 13.5391 20.5312 12.6367 20.5312 11.5703ZM38.4141 28.4688C39.3984 28.1406 40.0547 27.4844 40.4648 26.5C40.875 25.5977 40.957 24.6953 40.6289 23.7109C40.3008 22.7266 39.7266 21.9883 38.8242 21.4141L37.2656 20.4297L38.0039 18.7891C38.6602 17.5586 38.6602 16.3281 38.0039 15.1797C37.4297 14.3594 36.7734 13.7852 35.9531 13.375L34.3945 12.8008L34.6406 11.9805C34.8047 11.2422 34.8867 10.75 34.8867 10.5039C34.8867 9.84766 34.5586 9.19141 34.0664 8.61719C33.5742 8.04297 32.918 7.71484 32.2617 7.71484L30.375 7.87891L29.9648 6.32031C29.8008 5.66406 29.4727 5.17188 28.9805 4.76172C28.4883 4.43359 27.9141 4.1875 27.2578 4.1875C26.4375 4.1875 25.7812 4.51562 25.2891 5.00781C24.7148 5.58203 24.4688 6.23828 24.4688 6.97656V11.5703C24.4688 12.6367 24.7969 13.5391 25.4531 14.3594C26.1094 15.1797 26.9297 15.7539 27.9961 16C28.2422 16.1641 28.4062 16.3281 28.4062 16.6562V17.9688C28.4062 18.2148 28.3242 18.3789 28.1602 18.543C27.9961 18.707 27.832 18.707 27.668 18.625C26.4375 18.3789 25.3711 17.8867 24.4688 17.0664V34.9492C24.4688 35.9336 24.7969 36.6719 25.4531 37.3281C26.1094 37.9844 26.9297 38.3125 27.9141 38.3125C28.8984 38.3125 29.8008 37.9023 30.457 37.082C30.7852 36.6719 31.1133 35.9336 31.5234 34.7852L31.6055 34.375L33.3281 34.7031C34.3125 34.8672 35.2148 34.6211 36.0352 33.9648C36.8555 33.3086 37.2656 32.4062 37.2656 31.3398L36.8555 29.125L38.4141 28.4688Z" fill="url(#paint0_linear)"/>
<defs>
<linearGradient id="paint0_linear" x1="45" y1="1.53818e-06" x2="6.81972" y2="44.6263" gradientUnits="userSpaceOnUse">
<stop stop-color="#0072FF"/>
<stop offset="0.767956" stop-color="#00C6FF"/>
</linearGradient>
</defs>
</svg>
