<svg width="52" height="33" viewBox="0 0 52 33" fill="none" xmlns="http://www.w3.org/2000/svg">
<path d="M8.4375 17.25C8.4375 16.1836 8.02734 15.2812 7.28906 14.4609C6.46875 13.7227 5.56641 13.3125 4.5 13.3125C3.35156 13.3125 2.44922 13.7227 1.71094 14.4609C0.890625 15.2812 0.5625 16.1836 0.5625 17.25C0.5625 18.3984 0.890625 19.3008 1.71094 20.0391C2.44922 20.8594 3.35156 21.1875 4.5 21.1875C5.56641 21.1875 6.46875 20.8594 7.28906 20.0391C8.02734 19.3008 8.4375 18.3984 8.4375 17.25ZM4.5 28.4062C4.99219 28.4062 5.48438 28.6523 5.89453 28.9805C6.22266 29.3906 6.46875 29.8828 6.46875 30.375C6.46875 30.9492 6.22266 31.4414 5.89453 31.7695C5.48438 32.1797 4.99219 32.3438 4.5 32.3438C3.92578 32.3438 3.43359 32.1797 3.10547 31.7695C2.69531 31.4414 2.53125 30.9492 2.53125 30.375C2.53125 29.8828 2.69531 29.3906 3.10547 28.9805C3.43359 28.6523 3.92578 28.4062 4.5 28.4062ZM4.5 0.1875C5.56641 0.1875 6.46875 0.597656 7.28906 1.33594C8.02734 2.15625 8.4375 3.05859 8.4375 4.125C8.4375 5.27344 8.02734 6.17578 7.28906 6.91406C6.46875 7.73438 5.56641 8.0625 4.5 8.0625C3.35156 8.0625 2.44922 7.73438 1.71094 6.91406C0.890625 6.17578 0.5625 5.27344 0.5625 4.125C0.5625 3.05859 0.890625 2.15625 1.71094 1.33594C2.44922 0.597656 3.35156 0.1875 4.5 0.1875ZM17.625 15.2812C18.1172 15.2812 18.6094 15.5273 19.0195 15.8555C19.3477 16.2656 19.5938 16.7578 19.5938 17.25C19.5938 17.8242 19.3477 18.3164 19.0195 18.6445C18.6094 19.0547 18.1172 19.2188 17.625 19.2188C17.0508 19.2188 16.5586 19.0547 16.2305 18.6445C15.8203 18.3164 15.6562 17.8242 15.6562 17.25C15.6562 16.7578 15.8203 16.2656 16.2305 15.8555C16.5586 15.5273 17.0508 15.2812 17.625 15.2812ZM17.625 28.4062C18.1172 28.4062 18.6094 28.6523 19.0195 28.9805C19.3477 29.3906 19.5938 29.8828 19.5938 30.375C19.5938 30.9492 19.3477 31.4414 19.0195 31.7695C18.6094 32.1797 18.1172 32.3438 17.625 32.3438C17.0508 32.3438 16.5586 32.1797 16.2305 31.7695C15.8203 31.4414 15.6562 30.9492 15.6562 30.375C15.6562 29.8828 15.8203 29.3906 16.2305 28.9805C16.5586 28.6523 17.0508 28.4062 17.625 28.4062ZM17.625 0.1875C18.6914 0.1875 19.5938 0.597656 20.4141 1.33594C21.1523 2.15625 21.5625 3.05859 21.5625 4.125C21.5625 5.27344 21.1523 6.17578 20.4141 6.91406C19.5938 7.73438 18.6914 8.0625 17.625 8.0625C16.4766 8.0625 15.5742 7.73438 14.8359 6.91406C14.0156 6.17578 13.6875 5.27344 13.6875 4.125C13.6875 3.05859 14.0156 2.15625 14.8359 1.33594C15.5742 0.597656 16.4766 0.1875 17.625 0.1875ZM36 15.2812C36.4922 15.2812 36.9844 15.5273 37.3945 15.8555C37.7227 16.2656 37.9688 16.7578 37.9688 17.25C37.9688 17.8242 37.7227 18.3164 37.3945 18.6445C36.9844 19.0547 36.4922 19.2188 36 19.2188C35.4258 19.2188 34.9336 19.0547 34.6055 18.6445C34.1953 18.3164 34.0312 17.8242 34.0312 17.25C34.0312 16.7578 34.1953 16.2656 34.6055 15.8555C34.9336 15.5273 35.4258 15.2812 36 15.2812ZM36 28.4062C36.4922 28.4062 36.9844 28.6523 37.3945 28.9805C37.7227 29.3906 37.9688 29.8828 37.9688 30.375C37.9688 30.9492 37.7227 31.4414 37.3945 31.7695C36.9844 32.1797 36.4922 32.3438 36 32.3438C35.4258 32.3438 34.9336 32.1797 34.6055 31.7695C34.1953 31.4414 34.0312 30.9492 34.0312 30.375C34.0312 29.8828 34.1953 29.3906 34.6055 28.9805C34.9336 28.6523 35.4258 28.4062 36 28.4062ZM36 0.1875C37.0664 0.1875 37.9688 0.597656 38.7891 1.33594C39.5273 2.15625 39.9375 3.05859 39.9375 4.125C39.9375 5.27344 39.5273 6.17578 38.7891 6.91406C37.9688 7.73438 37.0664 8.0625 36 8.0625C34.8516 8.0625 33.9492 7.73438 33.2109 6.91406C32.3906 6.17578 32.0625 5.27344 32.0625 4.125C32.0625 3.05859 32.3906 2.15625 33.2109 1.33594C33.9492 0.597656 34.8516 0.1875 36 0.1875ZM49.125 15.2812C49.6172 15.2812 50.1094 15.5273 50.5195 15.8555C50.8477 16.2656 51.0938 16.7578 51.0938 17.25C51.0938 17.8242 50.8477 18.3164 50.5195 18.6445C50.1094 19.0547 49.6172 19.2188 49.125 19.2188C48.5508 19.2188 48.0586 19.0547 47.7305 18.6445C47.3203 18.3164 47.1562 17.8242 47.1562 17.25C47.1562 16.7578 47.3203 16.2656 47.7305 15.8555C48.0586 15.5273 48.5508 15.2812 49.125 15.2812ZM49.125 28.4062C49.6172 28.4062 50.1094 28.6523 50.5195 28.9805C50.8477 29.3906 51.0938 29.8828 51.0938 30.375C51.0938 30.9492 50.8477 31.4414 50.5195 31.7695C50.1094 32.1797 49.6172 32.3438 49.125 32.3438C48.5508 32.3438 48.0586 32.1797 47.7305 31.7695C47.3203 31.4414 47.1562 30.9492 47.1562 30.375C47.1562 29.8828 47.3203 29.3906 47.7305 28.9805C48.0586 28.6523 48.5508 28.4062 49.125 28.4062ZM49.125 2.15625C49.6172 2.15625 50.1094 2.40234 50.5195 2.73047C50.8477 3.14062 51.0938 3.63281 51.0938 4.125C51.0938 4.69922 50.8477 5.19141 50.5195 5.51953C50.1094 5.92969 49.6172 6.09375 49.125 6.09375C48.5508 6.09375 48.0586 5.92969 47.7305 5.51953C47.3203 5.19141 47.1562 4.69922 47.1562 4.125C47.1562 3.63281 47.3203 3.14062 47.7305 2.73047C48.0586 2.40234 48.5508 2.15625 49.125 2.15625Z" fill="url(#paint0_linear)"/>
<defs>
<linearGradient id="paint0_linear" x1="52" y1="-4" x2="15.2476" y2="46.5942" gradientUnits="userSpaceOnUse">
<stop stop-color="#0072FF"/>
<stop offset="0.767956" stop-color="#00C6FF"/>
</linearGradient>
</defs>
</svg>
