<svg width="12" height="12" viewBox="0 0 12 12" fill="none" xmlns="http://www.w3.org/2000/svg">
<path d="M5.8125 0C6.84375 0 7.82812 0.28125 8.71875 0.796875C9.60938 1.3125 10.3125 2.01562 10.8281 2.90625C11.3438 3.79688 11.625 4.78125 11.625 5.8125C11.625 6.86719 11.3438 7.82812 10.8281 8.71875C10.3125 9.60938 9.60938 10.3359 8.71875 10.8516C7.82812 11.3672 6.84375 11.625 5.8125 11.625C4.75781 11.625 3.79688 11.3672 2.90625 10.8516C2.01562 10.3359 1.28906 9.60938 0.773438 8.71875C0.257812 7.82812 0 6.86719 0 5.8125C0 4.78125 0.257812 3.79688 0.773438 2.90625C1.28906 2.01562 2.01562 1.3125 2.90625 0.796875C3.79688 0.28125 4.75781 0 5.8125 0ZM10.875 5.8125C10.875 4.89844 10.6406 4.05469 10.1953 3.28125C9.72656 2.50781 9.11719 1.89844 8.34375 1.42969C7.54688 0.984375 6.70312 0.75 5.78906 0.75C4.875 0.75 4.03125 0.984375 3.25781 1.42969C2.48438 1.89844 1.875 2.50781 1.42969 3.28125C0.960938 4.07812 0.75 4.92188 0.75 5.83594C0.75 6.75 0.960938 7.59375 1.42969 8.36719C1.875 9.14062 2.48438 9.75 3.28125 10.1953C4.05469 10.6641 4.89844 10.875 5.8125 10.875C6.72656 10.875 7.57031 10.6641 8.34375 10.1953C9.11719 9.75 9.72656 9.14062 10.1953 8.34375C10.6406 7.57031 10.875 6.72656 10.875 5.8125ZM7.38281 7.875C7.42969 7.92188 7.5 7.94531 7.59375 7.94531C7.66406 7.94531 7.73438 7.89844 7.78125 7.82812L7.96875 7.54688C8.01562 7.5 8.01562 7.42969 8.01562 7.35938C8.01562 7.28906 7.96875 7.21875 7.92188 7.17188L6.25781 5.95312V2.53125C6.25781 2.46094 6.21094 2.39062 6.16406 2.34375C6.11719 2.29688 6.04688 2.25 5.97656 2.25H5.64844C5.55469 2.25 5.48438 2.29688 5.4375 2.34375C5.39062 2.39062 5.36719 2.46094 5.36719 2.53125V6.28125C5.36719 6.375 5.39062 6.44531 5.48438 6.49219L7.38281 7.875Z" fill="#323643" fill-opacity="0.5"/>
</svg>
