<svg width="32" height="43" viewBox="0 0 32 43" fill="none" xmlns="http://www.w3.org/2000/svg">
<path d="M16 7.79688C18.2148 7.79688 20.1016 8.61719 21.7422 10.2578C23.3828 11.8984 24.2031 13.7852 24.2031 16V17.6406C24.2031 17.9688 24.0391 18.2148 23.875 18.3789C23.7109 18.543 23.4648 18.625 23.2188 18.625H21.9062C21.5781 18.625 21.332 18.543 21.168 18.3789C21.0039 18.2148 20.9219 17.9688 20.9219 17.6406V16C20.9219 14.6875 20.4297 13.5391 19.4453 12.5547C18.4609 11.5703 17.3125 11.0781 16 11.0781C14.6055 11.0781 13.457 11.5703 12.4727 12.5547C11.4883 13.5391 11.0781 14.6875 11.0781 16C11.0781 16.6562 11.2422 17.2305 11.7344 17.6406C12.1445 18.1328 12.7188 18.2969 13.375 18.2969C14.8516 18.2969 16.1641 18.8711 17.3125 19.9375C18.3789 21.0859 18.9531 22.3984 18.9531 23.875C18.9531 25.4336 18.3789 26.7461 17.3125 27.8125C16.1641 28.9609 14.8516 29.4531 13.375 29.4531H11.7344C11.4062 29.4531 11.1602 29.3711 10.9961 29.207C10.832 29.043 10.75 28.7969 10.75 28.4688V27.1562C10.75 26.9102 10.832 26.6641 10.9961 26.5C11.1602 26.3359 11.4062 26.1719 11.7344 26.1719H13.375C14.0312 26.1719 14.5234 26.0078 15.0156 25.5156C15.4258 25.1055 15.6719 24.5312 15.6719 23.875C15.6719 23.2188 15.4258 22.7266 15.0156 22.2344C14.5234 21.8242 14.0312 21.5781 13.375 21.5781C11.8164 21.5781 10.5039 21.0859 9.4375 19.9375C8.28906 18.8711 7.79688 17.5586 7.79688 16C7.79688 13.7852 8.53516 11.8984 10.1758 10.2578C11.8164 8.61719 13.7031 7.79688 16 7.79688ZM16 0.25C18.7891 0.25 21.4141 0.988281 23.875 2.38281C26.2539 3.85938 28.1406 5.74609 29.6172 8.125C31.0117 10.5859 31.75 13.2109 31.75 16C31.75 18.8711 31.0117 21.4961 29.6172 23.957C28.1406 26.418 26.2539 28.3047 23.875 29.6172V30.4375C23.875 32.5703 23.3008 34.5391 22.2344 36.3438C21.168 38.1484 19.7734 39.625 17.9688 40.6914C16.1641 41.7578 14.1953 42.25 12.0625 42.25C9.92969 42.25 7.96094 41.7578 6.15625 40.6914C4.35156 39.625 2.875 38.1484 1.80859 36.3438C0.742188 34.5391 0.25 32.5703 0.25 30.4375V16C0.25 13.2109 0.90625 10.5859 2.38281 8.125C3.77734 5.74609 5.66406 3.85938 8.125 2.38281C10.5039 0.988281 13.1289 0.25 16 0.25ZM21.9062 26.2539C23.7109 25.1875 25.1055 23.7109 26.1719 21.9062C27.2383 20.1016 27.8125 18.1328 27.8125 16C27.8125 13.8672 27.2383 11.8984 26.1719 10.0938C25.1055 8.28906 23.7109 6.89453 21.9062 5.82812C20.1016 4.76172 18.1328 4.1875 16 4.1875C13.8672 4.1875 11.8984 4.76172 10.0938 5.82812C8.28906 6.89453 6.8125 8.28906 5.74609 10.0938C4.67969 11.8984 4.1875 13.8672 4.1875 16V30.4375C4.1875 32.6523 4.92578 34.5391 6.48438 36.0156C7.96094 37.5742 9.84766 38.3125 12.0625 38.3125C14.1953 38.3125 16.082 37.5742 17.6406 36.0156C19.1172 34.5391 19.9375 32.6523 19.9375 30.4375V27.3203L21.9062 26.2539Z" fill="url(#paint0_linear)"/>
<defs>
<linearGradient id="paint0_linear" x1="32" y1="1.53818e-06" x2="-5.99435" y2="31.5797" gradientUnits="userSpaceOnUse">
<stop stop-color="#0072FF"/>
<stop offset="0.767956" stop-color="#00C6FF"/>
</linearGradient>
</defs>
</svg>
