<svg width="44" height="38" viewBox="0 0 44 38" fill="none" xmlns="http://www.w3.org/2000/svg">
<path d="M38.5703 3.5C40.5391 5.22266 41.8516 7.27344 42.5898 9.57031C43.1641 11.7031 43.1641 13.918 42.5898 16.1328C41.9336 18.3477 40.9492 20.2344 39.4727 21.7109L25.1172 36.3125C24.2148 37.2148 23.1484 37.625 22 37.625C20.7695 37.625 19.7031 37.2148 18.8828 36.3125L4.52734 21.7109C3.05078 20.2344 1.98438 18.3477 1.41016 16.1328C0.753906 13.918 0.835938 11.7031 1.49219 9.57031C2.14844 7.27344 3.46094 5.22266 5.42969 3.5C6.90625 2.1875 8.71094 1.36719 10.7617 1.03906C12.7305 0.710938 14.7812 0.875 16.75 1.53125C18.7188 2.1875 20.5234 3.25391 22 4.73047C23.4766 3.25391 25.1992 2.1875 27.168 1.53125C29.1367 0.875 31.1875 0.710938 33.2383 1.03906C35.207 1.36719 37.0117 2.1875 38.5703 3.5ZM36.6836 18.9219C37.668 17.9375 38.3242 16.625 38.7344 15.1484C39.1445 13.6719 39.1445 12.1133 38.7344 10.6367C38.2422 9.07812 37.3398 7.68359 36.0273 6.53516C34.3867 5.22266 32.5 4.64844 30.3672 4.8125C28.2344 4.97656 26.3477 5.87891 24.8711 7.4375L22 10.3086L19.1289 7.4375C17.5703 5.87891 15.6836 4.97656 13.5508 4.8125C11.418 4.64844 9.53125 5.22266 7.97266 6.53516C6.57812 7.68359 5.67578 9.07812 5.26562 10.6367C4.77344 12.1133 4.77344 13.6719 5.18359 15.1484C5.59375 16.625 6.33203 17.9375 7.31641 18.9219L21.7539 33.5234C21.918 33.7695 22.082 33.7695 22.2461 33.5234L36.6836 18.9219Z" fill="url(#paint0_linear)"/>
<defs>
<linearGradient id="paint0_linear" x1="43" y1="-2" x2="4.5" y2="40" gradientUnits="userSpaceOnUse">
<stop stop-color="#0072FF"/>
<stop offset="0.767956" stop-color="#00C6FF"/>
</linearGradient>
</defs>
</svg>
