<svg width="42" height="38" viewBox="0 0 42 38" fill="none" xmlns="http://www.w3.org/2000/svg">
<path d="M21.8203 33.3594L30.7617 24.5H36.4219L24.6094 36.1484C23.625 37.1328 22.3945 37.625 21 37.625C19.5234 37.625 18.375 37.1328 17.3906 36.1484L5.66016 24.5H11.2383L20.1797 33.3594C20.3438 33.6055 20.6719 33.6875 21 33.6875C21.3281 33.6875 21.5742 33.6055 21.8203 33.3594ZM29.1211 0.875C31.0898 0.875 33.0586 1.36719 35.0273 2.35156C37.0781 3.5 38.7188 4.97656 39.9492 6.78125C41.2617 8.83203 42 11.1289 42 13.6719C42 16.7891 40.9336 19.4961 38.8828 21.875H28.0547L26.25 18.2656L22.1484 26.3867C21.9023 26.8789 21.4922 27.125 21 27.125C20.4258 27.125 20.0156 26.8789 19.7695 26.3867L15.1758 15.9688L12.7148 21.875H3.11719C0.984375 19.4961 0 16.7891 0 13.6719C0 11.1289 0.65625 8.83203 2.05078 6.78125C3.19922 4.97656 4.83984 3.5 6.97266 2.35156C8.85938 1.36719 10.8281 0.875 12.8789 0.875C15.9141 0.875 18.6211 1.85938 21 3.74609C23.2969 1.85938 26.0039 0.875 29.1211 0.875ZM36.0117 19.25C37.4883 17.4453 38.1445 15.3125 37.9805 12.9336C37.8164 10.8008 36.832 8.91406 35.1914 7.27344C33.5508 5.63281 31.5 4.8125 29.1211 4.8125C28.1367 4.8125 27.3984 4.89453 26.8242 5.05859C26.0039 5.22266 25.1836 5.63281 24.3633 6.28906C23.4609 6.94531 22.3125 7.84766 21 9.16016C19.1133 7.35547 17.5547 6.20703 16.4062 5.55078C15.4219 5.05859 14.1914 4.8125 12.8789 4.8125C10.418 4.8125 8.36719 5.63281 6.72656 7.27344C5.08594 8.91406 4.18359 10.8008 4.01953 12.9336C3.77344 15.3125 4.42969 17.4453 5.98828 19.25H10.9102L13.8633 12.1953C14.0273 11.7031 14.4375 11.375 15.0117 11.375C15.5859 11.375 15.9961 11.6211 16.3242 12.1133L21.082 22.7773L25.1016 14.7383C25.2656 14.2461 25.6758 14 26.25 14C26.7422 14 27.1523 14.2461 27.3984 14.7383L29.6953 19.25H36.0117Z" fill="url(#paint0_linear)"/>
<defs>
<linearGradient id="paint0_linear" x1="42" y1="-2" x2="3.5" y2="40" gradientUnits="userSpaceOnUse">
<stop stop-color="#0072FF"/>
<stop offset="0.767956" stop-color="#00C6FF"/>
</linearGradient>
</defs>
</svg>
