<svg width="53" height="43" viewBox="0 0 53 43" fill="none" xmlns="http://www.w3.org/2000/svg">
<path d="M52.4219 32.2422C52.5859 33.0625 52.75 33.8828 52.75 34.7031C52.75 36.8359 51.9297 38.6406 50.3711 40.1172C48.7305 41.5938 46.8438 42.25 44.7109 42.25C44.0547 42.25 43.4805 42.25 42.9883 42.0859C42.4961 42.0039 41.5117 41.7578 40.0352 41.2656L37.5742 40.6094C35.8516 40.1992 34.457 39.2969 33.3906 37.9844C32.2422 36.6719 31.75 35.1133 31.75 33.3906V26.1719L35.6875 28.7969V33.3906C35.6875 34.2109 35.9336 34.8672 36.5078 35.5234C37 36.1797 37.7383 36.6719 38.6406 36.8359L43.7266 38.2305C44.0547 38.3125 44.3828 38.3125 44.7109 38.3125C46.0234 38.3125 47.0898 37.9023 47.9102 36.918C48.7305 35.9336 48.9766 34.7852 48.6484 33.3086C46.9258 26.9922 44.3008 21.0039 40.7734 15.4258L40.5273 15.0977C39.625 13.7031 39.0508 12.8828 38.7227 12.5547C38.3945 12.2266 37.9844 12.0625 37.4922 12.0625C37 12.0625 36.5078 12.2266 36.1797 12.5547C35.8516 12.8828 35.6875 13.2109 35.6875 13.5391V21.0859L42.25 25.4336C42.5781 25.6797 42.7422 26.0078 42.8242 26.3359C42.8242 26.6641 42.7422 26.9922 42.5781 27.2383L41.9219 28.3867C41.6758 28.7148 41.3477 28.8789 41.0195 28.9609C40.6914 29.043 40.3633 28.9609 40.0352 28.7148L26.5 19.6914L12.9648 28.7148C12.6367 28.9609 12.2266 29.043 11.8984 28.9609C11.5703 28.8789 11.2422 28.7148 11.0781 28.3867L10.4219 27.2383C10.1758 26.9922 10.0938 26.6641 10.1758 26.3359C10.1758 26.0078 10.4219 25.6797 10.75 25.4336L17.3125 21.0859V13.5391C17.3125 13.2109 17.0664 12.8828 16.7383 12.5547C16.4102 12.2266 15.918 12.0625 15.4258 12.0625C14.9336 12.0625 14.5234 12.2266 14.1953 12.5547C13.8672 12.8828 13.293 13.7031 12.4727 15.0977L12.2266 15.4258C8.61719 21.0039 5.99219 26.9922 4.35156 33.3086C3.94141 34.7852 4.1875 35.9336 5.00781 36.918C5.82812 37.9023 6.97656 38.3125 8.28906 38.3125C8.61719 38.3125 8.94531 38.3125 9.27344 38.2305L14.3594 36.8359C15.1797 36.6719 15.918 36.1797 16.4922 35.5234C16.9844 34.8672 17.3125 34.2109 17.3125 33.3906V28.7969L21.25 26.1719V33.3906C21.25 35.1133 20.6758 36.6719 19.6094 37.9844C18.4609 39.2969 17.0664 40.1992 15.4258 40.6094L12.9648 41.2656C11.4062 41.7578 10.4219 42.0039 10.0117 42.0859C9.4375 42.25 8.86328 42.25 8.28906 42.25C6.07422 42.25 4.1875 41.5938 2.62891 40.1172C0.988281 38.6406 0.25 36.8359 0.25 34.7031C0.25 33.8828 0.332031 33.0625 0.578125 32.2422C2.38281 25.5977 5.17188 19.2812 8.94531 13.293L9.35547 12.6367C10.3398 11.0781 11.1602 10.0117 11.8164 9.4375C12.8008 8.61719 14.0312 8.125 15.5898 8.125C17.0664 8.125 18.3789 8.69922 19.5273 9.68359C20.6758 10.75 21.25 12.0625 21.25 13.5391V18.4609L23.957 16.6562C24.2852 16.4102 24.5312 16.082 24.5312 15.5898V1.5625C24.5312 1.23438 24.6133 0.90625 24.8594 0.660156C25.1055 0.414062 25.4336 0.25 25.8438 0.25H27.1562C27.4844 0.25 27.8125 0.414062 28.0586 0.660156C28.3047 0.90625 28.4688 1.23438 28.4688 1.5625V15.5898C28.4688 16.082 28.6328 16.4102 29.043 16.6562L31.75 18.4609V13.5391C31.75 12.0625 32.2422 10.75 33.3906 9.68359C34.5391 8.69922 35.8516 8.125 37.4102 8.125C38.8867 8.125 40.1992 8.61719 41.1836 9.4375C41.7578 10.0117 42.5781 11.0781 43.6445 12.6367L44.0547 13.293C47.8281 19.2812 50.6172 25.5977 52.4219 32.2422Z" fill="url(#paint0_linear)"/>
<defs>
<linearGradient id="paint0_linear" x1="53" y1="1.53818e-06" x2="16.2476" y2="50.5942" gradientUnits="userSpaceOnUse">
<stop stop-color="#0072FF"/>
<stop offset="0.767956" stop-color="#00C6FF"/>
</linearGradient>
</defs>
</svg>
