<svg width="33" height="25" viewBox="0 0 33 25" fill="none" xmlns="http://www.w3.org/2000/svg">
<path d="M31.1908 0.25C31.4095 0.25 31.5736 0.359375 31.7924 0.523438C31.9564 0.6875 32.0658 0.90625 32.0658 1.125V20.0469C32.0658 20.4297 31.9564 20.7578 31.7377 21.0312C31.5189 21.3594 31.3002 21.5781 30.972 21.6875L22.6595 24.5859C21.8939 24.8047 21.183 24.8047 20.472 24.5859L11.0658 21.25L1.76892 24.6953C1.65955 24.75 1.55017 24.75 1.4408 24.75C1.22205 24.75 1.0033 24.6953 0.839233 24.5312C0.620483 24.3672 0.565796 24.1484 0.565796 23.875V4.95312C0.565796 4.625 0.620483 4.29688 0.839233 3.96875C1.05798 3.69531 1.33142 3.47656 1.65955 3.3125L9.97205 0.414062C10.3002 0.304688 10.683 0.25 11.0658 0.25C11.3939 0.25 11.7767 0.304688 12.1595 0.414062L21.5658 3.75L30.8627 0.304688C30.972 0.304688 31.0814 0.25 31.1908 0.25ZM2.26111 4.95312L2.3158 22.6172L10.1908 19.7188V2.21875L2.26111 4.95312ZM11.9408 19.7188L20.6908 22.7812V5.28125L11.9408 2.21875V19.7188ZM22.4408 22.7812L30.3705 20.0469L30.3158 2.38281L22.4408 5.28125V22.7812Z" fill="#323643" fill-opacity="0.8"/>
</svg>
