<svg width="18" height="14" viewBox="0 0 18 14" fill="none" xmlns="http://www.w3.org/2000/svg">
<path d="M17.5 0C17.625 0 17.7188 0.0625 17.8438 0.15625C17.9375 0.25 18 0.375 18 0.5V11.3125C18 11.5312 17.9375 11.7188 17.8125 11.875C17.6875 12.0625 17.5625 12.1875 17.375 12.25L12.625 13.9062C12.1875 14.0312 11.7812 14.0312 11.375 13.9062L6 12L0.6875 13.9688C0.625 14 0.5625 14 0.5 14C0.375 14 0.25 13.9688 0.15625 13.875C0.03125 13.7812 0 13.6562 0 13.5V2.6875C0 2.5 0.03125 2.3125 0.15625 2.125C0.28125 1.96875 0.4375 1.84375 0.625 1.75L5.375 0.09375C5.5625 0.03125 5.78125 0 6 0C6.1875 0 6.40625 0.03125 6.625 0.09375L12 2L17.3125 0.03125C17.375 0.03125 17.4375 0 17.5 0ZM0.96875 2.6875L1 12.7812L5.5 11.125V1.125L0.96875 2.6875ZM6.5 11.125L11.5 12.875V2.875L6.5 1.125V11.125ZM12.5 12.875L17.0312 11.3125L17 1.21875L12.5 2.875V12.875Z" fill="white" fill-opacity="0.4"/>
</svg>
