<svg width="42" height="43" viewBox="0 0 42 43" fill="none" xmlns="http://www.w3.org/2000/svg">
<path d="M39.0469 38.3125C39.8672 38.3125 40.5234 38.6406 41.0977 39.2148C41.6719 39.7891 42 40.4453 42 41.2656C42 41.5938 41.8359 41.8398 41.6719 42.0039C41.5078 42.168 41.2617 42.25 41.0156 42.25H0.984375C0.65625 42.25 0.410156 42.168 0.246094 42.0039C0.0820312 41.8398 0 41.5938 0 41.2656C0 40.4453 0.246094 39.7891 0.820312 39.2148C1.39453 38.6406 2.13281 38.3125 2.95312 38.3125H25.5938C27.5625 38.3125 29.4492 37.8203 31.1719 36.8359C32.8125 35.8516 34.207 34.457 35.1914 32.7344C36.1758 31.0938 36.75 29.207 36.75 27.2383C36.75 25.2695 36.2578 23.4648 35.3555 21.8242C34.3711 20.1836 33.1406 18.7891 31.5 17.8047C29.8594 16.8203 28.1367 16.2461 26.25 16.082V24.4492C26.25 25.3516 25.9219 26.1719 25.4297 26.8281C24.9375 27.5664 24.1992 28.0586 23.3789 28.3047V31.3398C23.3789 32.2422 23.0508 32.9805 22.4766 33.5547C21.9023 34.1289 21.2461 34.375 20.4258 34.375H13.6992C12.8789 34.375 12.1406 34.1289 11.5664 33.5547C10.9922 32.9805 10.7461 32.2422 10.7461 31.3398V28.3047C9.84375 28.0586 9.10547 27.5664 8.61328 26.8281C8.12109 26.1719 7.875 25.3516 7.875 24.4492V8.20703C7.875 7.55078 8.03906 6.89453 8.44922 6.23828C8.77734 5.58203 9.26953 5.08984 9.92578 4.67969V3.28516C9.92578 2.46484 10.1719 1.72656 10.8281 1.15234C11.4023 0.578125 12.1406 0.25 12.9609 0.25H21.1641C21.9844 0.25 22.6406 0.578125 23.2969 1.15234C23.8711 1.72656 24.1992 2.46484 24.1992 3.28516V4.67969C24.7734 5.08984 25.2656 5.58203 25.6758 6.23828C26.0039 6.89453 26.25 7.55078 26.25 8.20703V12.0625C28.875 12.2266 31.2539 12.9648 33.4688 14.3594C35.6836 15.7539 37.4062 17.5586 38.7188 19.7734C40.0312 22.0703 40.6875 24.5312 40.6875 27.1562C40.6875 29.3711 40.1953 31.4219 39.375 33.3086C38.4727 35.2773 37.2422 36.918 35.7656 38.3125H39.0469ZM14.6836 30.4375H19.4414V27.1562H14.6836V30.4375ZM22.2305 24.5312L22.3125 8.125H20.3438L20.2617 4.1875H13.8633V8.125H11.8945L11.8125 24.4492L11.8945 24.5312H22.2305Z" fill="url(#paint0_linear)"/>
<defs>
<linearGradient id="paint0_linear" x1="42" y1="1.53818e-06" x2="3.5" y2="42" gradientUnits="userSpaceOnUse">
<stop stop-color="#0072FF"/>
<stop offset="0.767956" stop-color="#00C6FF"/>
</linearGradient>
</defs>
</svg>
