<svg width="11" height="16" viewBox="0 0 11 16" fill="none" xmlns="http://www.w3.org/2000/svg">
<path d="M6.09787 13C6.09787 12.75 5.97287 12.5 5.78537 12.3125C5.59787 12.125 5.34787 12 5.09787 12C4.81662 12 4.56662 12.125 4.37912 12.3125C4.19162 12.5 4.09787 12.75 4.09787 13C4.09787 13.2812 4.19162 13.5312 4.37912 13.7188C4.56662 13.9062 4.81662 14 5.09787 14C5.34787 14 5.59787 13.9062 5.78537 13.7188C5.97287 13.5312 6.09787 13.2812 6.09787 13ZM10.0979 1.5C10.0979 1.09375 9.94162 0.75 9.66037 0.4375C9.34787 0.15625 9.00412 0 8.59787 0H1.59787C1.16037 0 0.81662 0.15625 0.53537 0.4375C0.22287 0.75 0.0978699 1.09375 0.0978699 1.5V14.5C0.0978699 14.9375 0.22287 15.2812 0.53537 15.5625C0.81662 15.875 1.16037 16 1.59787 16H8.59787C9.00412 16 9.34787 15.875 9.66037 15.5625C9.94162 15.2812 10.0979 14.9375 10.0979 14.5V1.5ZM9.09787 1.5V14.5C9.09787 14.6562 9.03537 14.7812 8.94162 14.875C8.84787 14.9688 8.72287 15 8.59787 15H1.59787C1.44162 15 1.31662 14.9688 1.22287 14.875C1.12912 14.7812 1.09787 14.6562 1.09787 14.5V1.5C1.09787 1.375 1.12912 1.25 1.22287 1.15625C1.31662 1.0625 1.44162 1 1.59787 1H8.59787C8.72287 1 8.84787 1.0625 8.94162 1.15625C9.03537 1.25 9.09787 1.375 9.09787 1.5Z" fill="white" fill-opacity="0.4"/>
</svg>
