<svg width="18" height="29" viewBox="0 0 18 29" fill="none" xmlns="http://www.w3.org/2000/svg">
<path d="M10.75 23.25C10.75 22.8125 10.5312 22.375 10.2031 22.0469C9.875 21.7188 9.4375 21.5 9 21.5C8.50781 21.5 8.07031 21.7188 7.74219 22.0469C7.41406 22.375 7.25 22.8125 7.25 23.25C7.25 23.7422 7.41406 24.1797 7.74219 24.5078C8.07031 24.8359 8.50781 25 9 25C9.4375 25 9.875 24.8359 10.2031 24.5078C10.5312 24.1797 10.75 23.7422 10.75 23.25ZM17.75 3.125C17.75 2.41406 17.4766 1.8125 16.9844 1.26562C16.4375 0.773438 15.8359 0.5 15.125 0.5H2.875C2.10938 0.5 1.50781 0.773438 1.01562 1.26562C0.46875 1.8125 0.25 2.41406 0.25 3.125V25.875C0.25 26.6406 0.46875 27.2422 1.01562 27.7344C1.50781 28.2812 2.10938 28.5 2.875 28.5H15.125C15.8359 28.5 16.4375 28.2812 16.9844 27.7344C17.4766 27.2422 17.75 26.6406 17.75 25.875V3.125ZM16 3.125V25.875C16 26.1484 15.8906 26.3672 15.7266 26.5312C15.5625 26.6953 15.3438 26.75 15.125 26.75H2.875C2.60156 26.75 2.38281 26.6953 2.21875 26.5312C2.05469 26.3672 2 26.1484 2 25.875V3.125C2 2.90625 2.05469 2.6875 2.21875 2.52344C2.38281 2.35938 2.60156 2.25 2.875 2.25H15.125C15.3438 2.25 15.5625 2.35938 15.7266 2.52344C15.8906 2.6875 16 2.90625 16 3.125Z" fill="#323643" fill-opacity="0.8"/>
</svg>
