<svg width="53" height="43" viewBox="0 0 53 43" fill="none" xmlns="http://www.w3.org/2000/svg">
<path d="M42.0859 1.39844C43.6445 2.54688 44.5469 4.10547 44.793 6.07422C45.0391 8.04297 44.5469 9.68359 43.2344 11.1602L29.9453 26.7461C29.2891 27.4844 28.5508 27.8125 27.6484 27.8125H26.7461C26.0898 30.6016 24.6953 32.8164 22.7266 34.457H22.6445C19.5273 37 16.082 38.9688 12.2266 40.2812C8.37109 41.5938 4.35156 42.25 0.25 42.25L13.9492 27.3203C13.6211 27.0742 13.457 26.7461 13.457 26.3359C13.457 26.0078 13.5391 25.5977 13.8672 25.2695L33.1445 2.71094C33.8008 1.97266 34.5391 1.39844 35.5234 0.90625C36.5078 0.496094 37.4922 0.25 38.4766 0.25C39.7891 0.25 40.9375 0.660156 42.0859 1.39844ZM20.1836 31.4219C21.332 30.5195 22.1523 29.2891 22.7266 27.8125H18.7891L10.75 36.5898C14.1953 35.4414 17.3945 33.7188 20.1836 31.4219ZM40.2812 8.61719C40.7734 8.04297 41.0195 7.30469 40.9375 6.48438C40.7734 5.66406 40.4453 5.08984 39.7891 4.59766C39.3789 4.35156 38.9688 4.1875 38.4766 4.1875C37.4922 4.1875 36.7539 4.59766 36.0977 5.33594L20.2656 23.875H27.2383L40.2812 8.61719ZM40.2812 38.3125C40.4453 38.3125 40.5273 38.3945 40.6914 38.5586C40.8555 38.7227 40.9375 38.8047 40.9375 38.9688V41.5938C40.9375 41.7578 40.8555 41.9219 40.6914 42.0859C40.5273 42.25 40.4453 42.25 40.2812 42.25H33.7188C33.5547 42.25 33.3906 42.25 33.2266 42.0859C33.0625 41.9219 33.0625 41.7578 33.0625 41.5938V38.9688C33.0625 38.8047 33.0625 38.7227 33.2266 38.5586C33.3906 38.3945 33.5547 38.3125 33.7188 38.3125H40.2812ZM28.4688 38.3125C28.6328 38.3125 28.7148 38.3945 28.8789 38.5586C29.043 38.7227 29.125 38.8047 29.125 38.9688V41.5938C29.125 41.7578 29.043 41.9219 28.8789 42.0859C28.7148 42.25 28.6328 42.25 28.4688 42.25H21.9062C21.7422 42.25 21.5781 42.25 21.4141 42.0859C21.25 41.9219 21.25 41.7578 21.25 41.5938V38.9688C21.25 38.8047 21.25 38.7227 21.4141 38.5586C21.5781 38.3945 21.7422 38.3125 21.9062 38.3125H28.4688ZM52.0938 38.3125C52.2578 38.3125 52.3398 38.3945 52.5039 38.5586C52.668 38.7227 52.75 38.8047 52.75 38.9688V41.5938C52.75 41.7578 52.668 41.9219 52.5039 42.0859C52.3398 42.25 52.2578 42.25 52.0938 42.25H45.5312C45.3672 42.25 45.2031 42.25 45.0391 42.0859C44.875 41.9219 44.875 41.7578 44.875 41.5938V38.9688C44.875 38.8047 44.875 38.7227 45.0391 38.5586C45.2031 38.3945 45.3672 38.3125 45.5312 38.3125H52.0938Z" fill="url(#paint0_linear)"/>
<defs>
<linearGradient id="paint0_linear" x1="53" y1="1.53818e-06" x2="16.2476" y2="50.5942" gradientUnits="userSpaceOnUse">
<stop stop-color="#0072FF"/>
<stop offset="0.767956" stop-color="#00C6FF"/>
</linearGradient>
</defs>
</svg>
