<svg width="16" height="16" viewBox="0 0 16 16" fill="none" xmlns="http://www.w3.org/2000/svg">
<path d="M15.9062 15.0625C15.9688 15.125 16 15.2188 16 15.3125C16 15.4375 15.9688 15.5312 15.9062 15.5938L15.5938 15.875C15.5 15.9688 15.4062 16 15.3125 16C15.1875 16 15.125 15.9688 15.0625 15.875L11.0312 11.8438C10.9375 11.7812 10.9062 11.7188 10.9062 11.5938V11.2812C10.3125 11.8438 9.625 12.25 8.875 12.5625C8.125 12.875 7.3125 13 6.5 13C5.3125 13 4.21875 12.7188 3.21875 12.125C2.21875 11.5625 1.4375 10.7812 0.875 9.78125C0.28125 8.78125 0 7.6875 0 6.5C0 5.3125 0.28125 4.25 0.875 3.25C1.4375 2.25 2.21875 1.46875 3.21875 0.875C4.21875 0.3125 5.3125 0 6.5 0C7.6875 0 8.75 0.3125 9.75 0.875C10.75 1.46875 11.5312 2.25 12.125 3.25C12.6875 4.25 13 5.3125 13 6.5C13 7.34375 12.8438 8.15625 12.5312 8.90625C12.2188 9.65625 11.8125 10.3438 11.2812 10.9062H11.5938C11.6875 10.9062 11.7812 10.9688 11.875 11.0312L15.9062 15.0625ZM6.5 12C7.5 12 8.40625 11.7812 9.25 11.2812C10.0938 10.7812 10.75 10.125 11.25 9.28125C11.75 8.4375 12 7.5 12 6.5C12 5.5 11.75 4.59375 11.25 3.75C10.75 2.90625 10.0938 2.25 9.25 1.75C8.40625 1.25 7.5 1 6.5 1C5.5 1 4.5625 1.25 3.71875 1.75C2.875 2.25 2.21875 2.90625 1.71875 3.75C1.21875 4.59375 1 5.5 1 6.5C1 7.5 1.21875 8.4375 1.71875 9.28125C2.21875 10.125 2.875 10.7812 3.71875 11.2812C4.5625 11.7812 5.5 12 6.5 12Z" fill="#606470"/>
</svg>
