<svg width="43" height="43" viewBox="0 0 43 43" fill="none" xmlns="http://www.w3.org/2000/svg">
<path d="M24.625 42.25C25.5273 42.25 26.2656 42.0039 26.9219 41.3477C27.5781 40.6914 27.9062 39.9531 27.9062 38.9688V31.4219L35.3711 35.1953C36.1094 35.6875 36.9297 35.8516 37.832 35.6055C38.6523 35.3594 39.3906 34.8672 39.8828 34.0469L42.5078 29.4531C43 28.7148 43.082 27.8945 42.8359 26.9922C42.5898 26.1719 42.0977 25.5156 41.3594 25.0234L34.7148 21.25L41.3594 17.4766C42.0977 17.0664 42.5898 16.4102 42.8359 15.5078C43.082 14.6875 43 13.8672 42.5078 13.0469L39.8828 8.45312C39.3906 7.71484 38.6523 7.22266 37.832 6.97656C36.9297 6.73047 36.1094 6.8125 35.3711 7.30469L27.9062 11.0781V3.53125C27.9062 2.62891 27.5781 1.89062 26.9219 1.23438C26.2656 0.578125 25.5273 0.25 24.625 0.25H19.375C18.3906 0.25 17.6523 0.578125 16.9961 1.23438C16.3398 1.89062 16.0938 2.62891 16.0938 3.53125V11.0781L8.62891 7.30469C7.80859 6.8125 6.98828 6.73047 6.16797 6.97656C5.26562 7.22266 4.60938 7.71484 4.11719 8.45312L1.49219 13.0469C1 13.8672 0.835938 14.6875 1.08203 15.5078C1.32812 16.4102 1.82031 17.0664 2.64062 17.4766L9.28516 21.25L2.64062 25.0234C1.82031 25.5156 1.32812 26.1719 1.08203 26.9922C0.835938 27.8945 1 28.7148 1.49219 29.4531L4.11719 34.0469C4.60938 34.8672 5.26562 35.3594 6.16797 35.6055C6.98828 35.8516 7.80859 35.6875 8.62891 35.1953L16.0938 31.4219V38.9688C16.0938 39.9531 16.3398 40.6914 16.9961 41.3477C17.6523 42.0039 18.3906 42.25 19.375 42.25H24.625ZM20.0312 38.3125V24.6133L7.23438 31.5039L5.18359 28.0586L17.9805 21.25L5.18359 14.4414L7.23438 10.9961L20.0312 17.8867V4.1875H23.9688V17.8867L36.7656 10.9961L38.8164 14.4414L26.0195 21.25L38.8164 28.0586L36.7656 31.5039L23.9688 24.6133V38.3125H20.0312Z" fill="url(#paint0_linear)"/>
<defs>
<linearGradient id="paint0_linear" x1="43" y1="1.53818e-06" x2="4.5" y2="42" gradientUnits="userSpaceOnUse">
<stop stop-color="#0072FF"/>
<stop offset="0.767956" stop-color="#00C6FF"/>
</linearGradient>
</defs>
</svg>
