<svg width="42" height="43" viewBox="0 0 42 43" fill="none" xmlns="http://www.w3.org/2000/svg">
<path d="M9.84375 27.6484C7.05469 27.1562 4.67578 25.8438 2.78906 23.6289C0.902344 21.4961 0 18.9531 0 16V2.54688C0 2.30078 0 2.05469 0.164062 1.89062C0.328125 1.72656 0.492188 1.64453 0.738281 1.5625L6.48047 0.25C6.72656 0.25 6.97266 0.25 7.21875 0.414062C7.38281 0.578125 7.54688 0.824219 7.62891 0.988281L8.12109 2.95703C8.12109 3.28516 8.12109 3.53125 7.95703 3.69531C7.79297 3.94141 7.54688 4.10547 7.38281 4.10547L3.9375 4.84375V16C3.9375 18.2148 4.67578 20.1016 6.23438 21.5781C7.79297 23.1367 9.67969 23.875 11.8125 23.875C13.9453 23.875 15.832 23.1367 17.3906 21.4961C18.8672 19.9375 19.6875 18.0508 19.6875 15.918V4.84375L16.2422 4.10547C15.9961 4.10547 15.832 3.94141 15.668 3.69531C15.5039 3.53125 15.4219 3.28516 15.5039 2.95703L15.9961 0.988281C15.9961 0.824219 16.1602 0.578125 16.4062 0.414062C16.5703 0.25 16.8164 0.25 17.1445 0.25L22.8867 1.5625C23.0508 1.64453 23.2148 1.72656 23.3789 1.89062C23.543 2.05469 23.625 2.30078 23.625 2.46484V16C23.625 18.9531 22.6406 21.4961 20.7539 23.6289C18.8672 25.8438 16.5703 27.1562 13.7812 27.6484V29.125C13.7812 30.7656 14.1914 32.3242 15.0938 33.7188C15.9141 35.1953 17.1445 36.2617 18.6211 37.082C20.0977 37.9023 21.8203 38.3125 23.625 38.3125C25.4297 38.3125 27.0703 37.9023 28.5469 37.082C30.0234 36.2617 31.2539 35.1953 32.1562 33.7188C32.9766 32.3242 33.4688 30.7656 33.4688 29.125V20.9219C32.0742 20.5938 30.9258 19.7734 30.1055 18.625C29.2852 17.4766 28.875 16.1641 28.875 14.6875C28.875 12.8828 29.5312 11.3242 30.8438 10.0117C32.1562 8.69922 33.7148 8.125 35.5195 8.125C37.3242 8.20703 38.8008 8.86328 40.1133 10.1758C41.3438 11.4883 42 12.9648 42 14.7695C42 16.2461 41.5078 17.4766 40.6875 18.625C39.7852 19.7734 38.7188 20.5938 37.4062 20.9219V29.125C37.4062 31.5039 36.75 33.7188 35.5195 35.6875C34.2891 37.7383 32.6484 39.3789 30.5156 40.5273C28.3828 41.6758 26.0859 42.25 23.625 42.25C21.082 42.25 18.7852 41.6758 16.6523 40.5273C14.5195 39.3789 12.8789 37.7383 11.6484 35.6875C10.418 33.7188 9.84375 31.5039 9.84375 29.125V27.6484ZM35.4375 12.0625C34.6992 12.0625 34.043 12.3906 33.5508 12.8828C33.0586 13.375 32.8125 14.0312 32.8125 14.6875C32.8125 15.4258 33.0586 16.082 33.5508 16.5742C34.043 17.0664 34.6992 17.3125 35.4375 17.3125C36.0938 17.3125 36.75 17.0664 37.2422 16.5742C37.7344 16.082 38.0625 15.4258 38.0625 14.6875C38.0625 14.0312 37.7344 13.375 37.2422 12.8828C36.75 12.3906 36.0938 12.0625 35.4375 12.0625Z" fill="url(#paint0_linear)"/>
<defs>
<linearGradient id="paint0_linear" x1="42" y1="1.53818e-06" x2="3.5" y2="42" gradientUnits="userSpaceOnUse">
<stop stop-color="#0072FF"/>
<stop offset="0.767956" stop-color="#00C6FF"/>
</linearGradient>
</defs>
</svg>
