<svg width="42" height="43" viewBox="0 0 42 43" fill="none" xmlns="http://www.w3.org/2000/svg">
<path d="M32.6484 8.20703C34.3711 8.37109 35.9297 9.02734 37.4062 10.0117C38.8008 11.0781 39.9492 12.3906 40.7695 14.0312C41.5898 15.6719 42 17.3125 42 19.1172V26.2539C42 29.4531 41.0977 32.3242 39.457 34.9492C37.7344 37.5742 35.5195 39.4609 32.7305 40.7734C29.7773 42.168 26.7422 42.5781 23.543 42.0859C20.6719 41.6758 17.9648 40.4453 15.5039 38.3945L12.4688 35.8516C11.4023 35.0312 10.1719 34.7031 8.85938 34.7031C7.54688 34.7852 6.39844 35.2773 5.41406 36.1797C4.42969 37.082 3.9375 38.2305 3.9375 39.543V40.9375C3.9375 41.3477 3.77344 41.6758 3.52734 41.9219C3.28125 42.168 2.95312 42.25 2.625 42.25H1.3125C0.902344 42.25 0.574219 42.168 0.328125 41.9219C0.0820312 41.6758 0 41.3477 0 40.9375V39.625C0 37.8203 0.410156 36.1797 1.3125 34.7031C2.13281 33.2266 3.36328 31.9961 4.83984 31.0938C6.31641 30.2734 8.03906 29.7812 9.84375 29.7812H15.0938C16.7344 29.7812 18.1289 29.207 19.2773 28.0586C20.4258 26.9102 21 25.5156 21 23.875V18.625L21.082 17.9688H21C19.1953 17.9688 17.4727 17.5586 15.9961 16.6562C14.5195 15.8359 13.2891 14.6055 12.4688 13.1289C11.5664 11.6523 11.1562 9.92969 11.1562 8.125V1.5625C11.1562 1.23438 11.2383 0.90625 11.4844 0.660156C11.7305 0.414062 12.0586 0.25 12.4688 0.25H13.7812C14.1094 0.25 14.4375 0.414062 14.6836 0.660156C14.9297 0.90625 15.0938 1.23438 15.0938 1.5625V8.125C15.0938 9.76562 15.668 11.1602 16.8164 12.3086C17.9648 13.457 19.3594 14.0312 21 14.0312H22.0664C23.0508 12.0625 24.4453 10.5859 26.4141 9.4375C28.3008 8.37109 30.3516 7.96094 32.6484 8.20703ZM26.0039 38.3125C28.6289 38.3125 30.9258 37.5742 33.0586 35.9336C35.1914 34.375 36.5859 32.3242 37.4062 29.8633L36.3398 29.9453C33.9609 29.9453 31.9922 29.3711 30.3516 28.0586C29.5312 27.5664 28.6289 27.2383 27.4805 27.0742C26.332 26.9102 25.2656 27.0742 24.2812 27.4023V27.3203C23.625 29.125 22.5586 30.5195 21.082 31.668C19.6055 32.8164 17.8828 33.4727 15.9961 33.6367L18.375 35.6055C20.5898 37.4102 23.1328 38.3125 26.0039 38.3125ZM38.0625 25.7617V18.625C38.0625 16.8203 37.4062 15.3438 36.0938 14.0312C34.7812 12.7188 33.3047 12.0625 31.5 12.0625C29.6953 12.0625 28.1367 12.7188 26.8242 14.0312C25.5117 15.3438 24.9375 16.8203 24.9375 18.625V23.2188C26.25 23.0547 27.6445 23.0547 29.0391 23.3828C30.4336 23.7109 31.6641 24.2031 32.6484 24.9414C33.3047 25.4336 34.207 25.7617 35.1914 25.9258C36.1758 26.0898 37.0781 26.0898 38.0625 25.7617Z" fill="url(#paint0_linear)"/>
<defs>
<linearGradient id="paint0_linear" x1="42" y1="1.53818e-06" x2="3.5" y2="42" gradientUnits="userSpaceOnUse">
<stop stop-color="#0072FF"/>
<stop offset="0.767956" stop-color="#00C6FF"/>
</linearGradient>
</defs>
</svg>
