<svg width="239" height="151" viewBox="0 0 239 151" fill="none" xmlns="http://www.w3.org/2000/svg">
<path d="M152.482 55.8514L157.447 50.409L162.865 55.3518L157.9 60.7942L152.482 55.8514Z" fill="white"/>
<path d="M163.318 65.737L168.283 60.2946L173.701 65.2373L168.735 70.6797L163.318 65.737Z" fill="white"/>
<path d="M174.153 75.6225L179.118 70.1801L184.536 75.1229L179.571 80.5653L174.153 75.6225Z" fill="white"/>
<path d="M141.647 45.9659L146.612 40.5235L152.03 45.4663L147.064 50.9086L141.647 45.9659Z" fill="white"/>
<path d="M130.811 36.0803L135.776 30.638L141.194 35.5807L136.229 41.0231L130.811 36.0803Z" fill="white"/>
<path d="M119.976 26.1948L124.941 20.7524L130.359 25.6952L125.393 31.1376L119.976 26.1948Z" fill="white"/>
<path d="M109.14 16.3093L114.105 10.8669L119.523 15.8097L114.558 21.252L109.14 16.3093Z" fill="white"/>
<path d="M143.897 -21.7873L148.862 -27.2297L154.28 -22.2869L149.315 -16.8446L143.897 -21.7873Z" fill="white"/>
<path d="M19.7659 114.272L24.7311 108.83L30.1489 113.772L25.1837 119.215L19.7659 114.272Z" fill="white"/>
<path d="M84.7789 173.585L89.7441 168.143L95.1618 173.086L90.1966 178.528L84.7789 173.585Z" fill="white"/>
<path d="M208.91 37.5259L213.875 32.0835L219.293 37.0263L214.328 42.4686L208.91 37.5259Z" fill="white"/>
<path d="M33.989 142.207C32.618 143.709 30.2935 143.821 28.7976 142.456L1.70882 117.743C0.212846 116.378 0.111541 114.053 1.48257 112.55L145.474 -45.2788C146.845 -46.7816 149.17 -46.8934 150.666 -45.5286L177.755 -20.8148C179.251 -19.45 179.352 -17.125 177.981 -15.6222C171.125 -8.10799 171.632 3.51623 179.112 10.3407C186.592 17.1651 198.214 16.6059 205.07 9.09164C206.441 7.58887 208.765 7.47702 210.261 8.84184L237.35 33.5557C238.846 34.9205 238.947 37.2455 237.576 38.7483L93.5843 196.577C92.2132 198.08 89.8887 198.192 88.3928 196.827L61.304 172.113C59.8081 170.748 59.7067 168.423 61.0778 166.92C67.9332 159.406 67.4267 147.782 59.9465 140.958C52.4663 134.133 40.8445 134.692 33.989 142.207ZM67.4431 138.151C74.6802 146.955 75.2267 159.505 68.7858 168.967L90.6491 188.913L229.676 36.5267L207.812 16.5801C196.824 25.636 180.619 24.0993 171.616 13.147C164.379 4.34331 163.832 -8.20615 170.273 -17.6683L148.41 -37.6149L9.38293 114.772L31.2462 134.718C42.2344 125.662 58.4402 127.199 67.4431 138.151Z" fill="white"/>
<path d="M92.4406 50.9353C97.925 44.9238 107.222 44.4765 113.207 49.9361C119.191 55.3957 119.596 64.6949 114.112 70.7064C108.627 76.7178 99.3299 77.1652 93.3456 71.7056C87.3614 66.246 86.9562 56.9467 92.4406 50.9353ZM108.694 65.7636C111.436 62.7577 111.234 58.1084 108.241 55.3784C105.249 52.6485 100.601 52.8722 97.8583 55.878C95.116 58.8839 95.3186 63.5332 98.3109 66.2632C101.303 68.9931 105.951 68.7695 108.694 65.7636Z" fill="white"/>
<path d="M95.1557 113.246C100.64 107.235 109.937 106.787 115.922 112.247C121.906 117.707 122.311 127.006 116.827 133.017C111.342 139.029 102.045 139.476 96.0607 134.016C90.0764 128.557 89.6712 119.258 95.1557 113.246ZM111.409 128.074C114.151 125.069 113.949 120.419 110.956 117.689C107.964 114.959 103.316 115.183 100.573 118.189C97.831 121.195 98.0336 125.844 101.026 128.574C104.018 131.304 108.667 131.08 111.409 128.074Z" fill="white"/>
<path d="M62.9369 90.2973L145.999 86.3005L146.319 93.6439L63.2569 97.6406L62.9369 90.2973Z" fill="white"/>
</svg>
