<svg width="24" height="38" viewBox="0 0 24 38" fill="none" xmlns="http://www.w3.org/2000/svg">
<path d="M23.8125 12.6875C23.8125 15.6406 22.8281 18.1836 20.9414 20.3164C19.0547 22.5312 16.7578 23.8438 13.9688 24.3359V29.0938H17.5781C17.8242 29.0938 18.0703 29.2578 18.2344 29.4219C18.3984 29.5859 18.5625 29.832 18.5625 30.0781V32.0469C18.5625 32.375 18.3984 32.6211 18.2344 32.7852C18.0703 32.9492 17.8242 33.0312 17.5781 33.0312H13.9688V36.6406C13.9688 36.9688 13.8047 37.2148 13.6406 37.3789C13.4766 37.543 13.2305 37.625 12.9844 37.625H11.0156C10.6875 37.625 10.4414 37.543 10.2773 37.3789C10.1133 37.2148 10.0312 36.9688 10.0312 36.6406V33.0312H6.42188C6.09375 33.0312 5.84766 32.9492 5.68359 32.7852C5.51953 32.6211 5.4375 32.375 5.4375 32.0469V30.0781C5.4375 29.832 5.51953 29.5859 5.68359 29.4219C5.84766 29.2578 6.09375 29.0938 6.42188 29.0938H10.0312V24.3359C7.24219 23.8438 4.86328 22.5312 2.97656 20.3164C1.08984 18.1836 0.1875 15.6406 0.1875 12.6875C0.1875 10.5547 0.679688 8.58594 1.74609 6.78125C2.8125 4.97656 4.28906 3.58203 6.09375 2.51562C7.89844 1.44922 9.86719 0.875 12 0.875C14.1328 0.875 16.1016 1.44922 17.9062 2.51562C19.7109 3.58203 21.1055 4.97656 22.1719 6.78125C23.2383 8.58594 23.8125 10.5547 23.8125 12.6875ZM4.125 12.6875C4.125 14.9023 4.86328 16.7891 6.42188 18.2656C7.89844 19.8242 9.78516 20.5625 12 20.5625C14.1328 20.5625 16.0195 19.8242 17.5781 18.2656C19.0547 16.7891 19.875 14.9023 19.875 12.6875C19.875 10.5547 19.0547 8.66797 17.5781 7.10938C16.0195 5.63281 14.1328 4.8125 12 4.8125C9.78516 4.8125 7.89844 5.63281 6.42188 7.10938C4.86328 8.66797 4.125 10.5547 4.125 12.6875Z" fill="url(#paint0_linear)"/>
<defs>
<linearGradient id="paint0_linear" x1="24" y1="-2" x2="-10.6982" y2="19.63" gradientUnits="userSpaceOnUse">
<stop stop-color="#0072FF"/>
<stop offset="0.767956" stop-color="#00C6FF"/>
</linearGradient>
</defs>
</svg>
