<?xml version="1.0" encoding="utf-8"?><svg xmlns="http://www.w3.org/2000/svg" xmlns:xlink="http://www.w3.org/1999/xlink"><symbol viewBox="0 0 16 16" id="atmin" xmlns="http://www.w3.org/2000/svg"><path d="M7.774.25c1.407 0 2.72.313 3.907.938a7.264 7.264 0 0 1 2.78 2.53A7.185 7.185 0 0 1 15.525 7.5c0 1.344-.406 2.375-1.218 3.125-.875.813-2.125 1.219-3.75 1.219-.438 0-.813-.094-1.063-.344-.25-.219-.375-.531-.375-.969-.281.406-.625.75-1.062 1-.532.313-1.063.469-1.625.469-.907 0-1.594-.25-2.094-.813-.5-.53-.75-1.28-.75-2.25 0-.937.187-1.812.625-2.593a4.716 4.716 0 0 1 1.5-1.719C6.337 4.219 7.024 4 7.743 4c.531 0 1 .125 1.406.375.407.25.72.563.907.969 0-.188.03-.407.093-.657l.032-.125a.28.28 0 0 1 .093-.218.355.355 0 0 1 .25-.094h.407c.093 0 .187.063.28.156a.504.504 0 0 1 .095.282l-1.032 5.125c-.062.374-.062.656.032.812.093.188.28.25.593.25 1.032 0 1.875-.281 2.563-.844.687-.594 1.062-1.437 1.062-2.531a6.072 6.072 0 0 0-.937-3.281c-.594-.938-1.406-1.657-2.438-2.188a7.654 7.654 0 0 0-3.375-.781 6.69 6.69 0 0 0-3.406.906 6.835 6.835 0 0 0-2.437 2.469C1.306 5.656 1.024 6.781 1.024 8c0 1.25.282 2.375.907 3.406a6.518 6.518 0 0 0 2.437 2.438c1.031.625 2.156.906 3.406.906.688 0 1.407-.094 2.094-.344a6.46 6.46 0 0 0 1.906-.969c.063-.062.157-.062.25-.062a.627.627 0 0 1 .25.125l.157.188c.062.093.062.187.062.312s-.062.188-.125.25a7.655 7.655 0 0 1-4.594 1.5A7.573 7.573 0 0 1 3.9 14.719a7.758 7.758 0 0 1-2.843-2.844A7.572 7.572 0 0 1 .024 8a7.65 7.65 0 0 1 1.032-3.875C1.743 2.937 2.712 2 3.899 1.312 5.087.625 6.37.25 7.774.25zM6.587 10.969c.562 0 1.094-.188 1.594-.594a3.777 3.777 0 0 0 1.03-1.438c.25-.593.407-1.187.407-1.812S9.462 6 9.15 5.625c-.312-.375-.78-.563-1.343-.563-.5 0-1 .157-1.47.47-.468.312-.843.75-1.124 1.312-.313.625-.438 1.281-.438 2 0 .687.157 1.187.47 1.562.312.375.78.563 1.343.563z" fill-opacity=".4"/></symbol><symbol viewBox="0 0 53 27" id="band-aid" xmlns="http://www.w3.org/2000/svg"><path d="M45.531.125c1.969 0 3.61.738 5.086 2.133 1.395 1.476 2.133 3.117 2.133 5.086v11.812c0 1.969-.738 3.692-2.133 5.086-1.476 1.477-3.117 2.133-5.086 2.133H7.47c-1.969 0-3.692-.656-5.086-2.133C.906 22.848.25 21.125.25 19.156V7.344c0-1.969.656-3.61 2.133-5.086C3.777.863 5.5.125 7.469.125H45.53zM7.47 22.438H16V4.063H7.469c-.985 0-1.723.328-2.38.984-.655.656-.902 1.394-.902 2.297v11.812c0 .985.247 1.723.903 2.38.656.655 1.394.901 2.379.901zm15.093-7.22c-.574 0-1.066.247-1.394.575a1.92 1.92 0 0 0-.574 1.395c0 .574.164 1.066.574 1.394.328.41.82.574 1.395.574a1.92 1.92 0 0 0 1.394-.574c.328-.328.574-.82.574-1.395 0-.492-.246-.984-.574-1.394-.41-.328-.902-.574-1.395-.574zm-1.968-5.905c0 .574.164 1.066.574 1.394.328.41.82.574 1.395.574a1.92 1.92 0 0 0 1.394-.574c.328-.328.574-.82.574-1.395 0-.492-.246-.984-.574-1.394-.41-.328-.902-.574-1.395-.574-.574 0-1.066.246-1.394.574a1.92 1.92 0 0 0-.574 1.394zm7.875 7.874c0 .575.164 1.067.574 1.395.328.41.82.574 1.395.574a1.92 1.92 0 0 0 1.394-.574c.328-.328.574-.82.574-1.395 0-.492-.246-.984-.574-1.394-.41-.328-.902-.574-1.395-.574-.574 0-1.066.246-1.394.574a1.92 1.92 0 0 0-.574 1.395zm1.968-5.906a1.92 1.92 0 0 0 1.395-.574c.328-.328.574-.82.574-1.395 0-.492-.246-.984-.574-1.394-.41-.328-.902-.574-1.395-.574-.574 0-1.066.246-1.394.574a1.92 1.92 0 0 0-.574 1.394c0 .575.164 1.067.574 1.395.328.41.82.574 1.395.574zm18.375 7.875V7.344c0-.903-.328-1.64-.984-2.297-.656-.656-1.394-.984-2.297-.984H37v18.375h8.531c.903 0 1.64-.247 2.297-.903.656-.656.984-1.394.984-2.379z"/><defs><linearGradient id="bpaint0_linear" x1="53" y1="-8" x2="16.248" y2="42.594" gradientUnits="userSpaceOnUse"><stop stop-color="#0072FF"/><stop offset=".768" stop-color="#00C6FF"/></linearGradient></defs></symbol><symbol viewBox="0 0 52 33" id="braille" xmlns="http://www.w3.org/2000/svg"><path d="M8.438 17.25c0-1.066-.41-1.969-1.149-2.79-.82-.737-1.723-1.148-2.789-1.148-1.148 0-2.05.41-2.79 1.149-.82.82-1.147 1.723-1.147 2.789 0 1.148.328 2.05 1.148 2.79.738.82 1.64 1.148 2.789 1.148 1.066 0 1.969-.329 2.79-1.149.737-.738 1.147-1.64 1.147-2.789zM4.5 28.406c.492 0 .984.246 1.395.575.328.41.574.902.574 1.394 0 .574-.246 1.066-.574 1.395-.41.41-.903.574-1.395.574-.574 0-1.066-.164-1.395-.575-.41-.328-.574-.82-.574-1.394 0-.492.164-.984.574-1.395a1.98 1.98 0 0 1 1.395-.574zM4.5.188c1.066 0 1.969.41 2.79 1.148.737.82 1.147 1.723 1.147 2.789 0 1.148-.41 2.05-1.148 2.79-.82.82-1.723 1.147-2.789 1.147-1.148 0-2.05-.328-2.79-1.148C.89 6.176.564 5.274.564 4.125c0-1.066.328-1.969 1.148-2.79C2.449.599 3.35.189 4.5.189zM17.625 15.28c.492 0 .984.246 1.395.574.328.41.574.903.574 1.395 0 .574-.246 1.066-.575 1.395a1.92 1.92 0 0 1-1.394.574c-.574 0-1.066-.164-1.395-.575-.41-.328-.574-.82-.574-1.394 0-.492.164-.984.574-1.395a1.98 1.98 0 0 1 1.395-.574zm0 13.125c.492 0 .984.246 1.395.575.328.41.574.902.574 1.394 0 .574-.246 1.066-.575 1.395a1.92 1.92 0 0 1-1.394.574c-.574 0-1.066-.164-1.395-.575-.41-.328-.574-.82-.574-1.394 0-.492.164-.984.574-1.395a1.98 1.98 0 0 1 1.395-.574zm0-28.218c1.066 0 1.969.41 2.79 1.148.737.82 1.148 1.723 1.148 2.789 0 1.148-.41 2.05-1.149 2.79-.82.82-1.723 1.147-2.789 1.147-1.148 0-2.05-.328-2.79-1.148-.82-.738-1.148-1.64-1.148-2.789 0-1.066.329-1.969 1.149-2.79.738-.737 1.64-1.147 2.789-1.147zM36 15.28c.492 0 .984.246 1.395.574.328.41.574.903.574 1.395 0 .574-.246 1.066-.575 1.395a1.92 1.92 0 0 1-1.394.574c-.574 0-1.066-.164-1.395-.575-.41-.328-.574-.82-.574-1.394 0-.492.164-.984.575-1.395.328-.328.82-.574 1.394-.574zm0 13.125c.492 0 .984.246 1.395.575.328.41.574.902.574 1.394 0 .574-.246 1.066-.575 1.395a1.92 1.92 0 0 1-1.394.574c-.574 0-1.066-.164-1.395-.575-.41-.328-.574-.82-.574-1.394 0-.492.164-.984.575-1.395.328-.328.82-.574 1.394-.574zM36 .188c1.066 0 1.969.41 2.79 1.148.737.82 1.148 1.723 1.148 2.789 0 1.148-.41 2.05-1.149 2.79-.82.82-1.723 1.147-2.789 1.147-1.148 0-2.05-.328-2.79-1.148-.82-.738-1.148-1.64-1.148-2.789 0-1.066.329-1.969 1.149-2.79C33.949.599 34.85.189 36 .189zM49.125 15.28c.492 0 .984.246 1.395.574.328.41.574.903.574 1.395 0 .574-.246 1.066-.575 1.395a1.92 1.92 0 0 1-1.394.574c-.574 0-1.066-.164-1.395-.575-.41-.328-.574-.82-.574-1.394 0-.492.164-.984.575-1.395.328-.328.82-.574 1.394-.574zm0 13.125c.492 0 .984.246 1.395.575.328.41.574.902.574 1.394 0 .574-.246 1.066-.575 1.395a1.92 1.92 0 0 1-1.394.574c-.574 0-1.066-.164-1.395-.575-.41-.328-.574-.82-.574-1.394 0-.492.164-.984.575-1.395.328-.328.82-.574 1.394-.574zm0-26.25c.492 0 .984.246 1.395.574.328.41.574.903.574 1.395 0 .574-.246 1.066-.575 1.395a1.92 1.92 0 0 1-1.394.574c-.574 0-1.066-.164-1.395-.574-.41-.329-.574-.82-.574-1.395 0-.492.164-.984.575-1.395.328-.328.82-.574 1.394-.574z"/><defs><linearGradient id="cpaint0_linear" x1="52" y1="-4" x2="15.248" y2="46.594" gradientUnits="userSpaceOnUse"><stop stop-color="#0072FF"/><stop offset=".768" stop-color="#00C6FF"/></linearGradient></defs></symbol><symbol viewBox="0 0 45 43" id="brain" xmlns="http://www.w3.org/2000/svg"><path d="M42.188 18.953c.82.82 1.394 1.723 1.886 2.707.492.985.739 2.05.739 3.117 0 1.395-.329 2.707-.985 3.856-.656 1.148-1.476 2.133-2.625 2.789 0 1.969-.738 3.691-2.05 5.086-1.395 1.394-3.036 2.133-5.005 2.133a7.149 7.149 0 0 1-2.707 2.707c-1.148.656-2.296.902-3.527.902-1.066 0-2.05-.164-2.953-.574-.984-.41-1.805-.985-2.461-1.805a7.333 7.333 0 0 1-2.46 1.805 7.567 7.567 0 0 1-2.954.574c-1.313 0-2.461-.246-3.61-.902-1.148-.657-1.968-1.559-2.624-2.707-1.97 0-3.692-.739-5.004-2.133-1.395-1.395-2.051-3.117-2.051-5.086-1.149-.656-2.05-1.64-2.707-2.79-.656-1.148-.903-2.46-.903-3.855 0-1.066.165-2.133.657-3.117a10.386 10.386 0 0 1 1.969-2.707 6.992 6.992 0 0 1-.247-1.887 7.32 7.32 0 0 1 .985-3.691c.656-1.148 1.476-2.133 2.625-2.871 0-1.64.492-3.035 1.558-4.266 1.067-1.23 2.38-1.968 3.938-2.297a6.547 6.547 0 0 1 2.46-2.707C15.2.578 16.43.25 17.743.25c1.805 0 3.445.656 4.758 1.969C23.813.906 25.371.25 27.258.25c1.312 0 2.46.328 3.527.984 1.067.657 1.887 1.559 2.543 2.707a6.997 6.997 0 0 1 3.856 2.297c1.066 1.23 1.64 2.625 1.64 4.266 1.149.738 1.969 1.723 2.625 2.871a7.32 7.32 0 0 1 .985 3.691 6.99 6.99 0 0 1-.246 1.887zM20.53 11.57V6.977c0-.739-.328-1.395-.82-1.97-.574-.491-1.23-.82-1.969-.82-.656 0-1.23.247-1.723.575-.492.41-.82.902-.984 1.558l-.41 1.559-1.887-.164c-.738 0-1.394.328-1.886.902-.493.574-.739 1.23-.739 1.887 0 .246.082.738.246 1.476l.246.82-1.558.575c-.82.41-1.559.984-2.05 1.805-.657 1.148-.657 2.379 0 3.61l.737 1.64-1.558.984c-.985.574-1.559 1.313-1.887 2.297-.328.984-.246 1.887.164 2.789.41.984 1.149 1.64 2.133 1.969l1.559.656c-.329 1.313-.41 2.05-.41 2.215 0 1.066.41 1.969 1.23 2.625.82.656 1.723.902 2.707.738l1.723-.328.082.41c.328 1.149.738 1.887 1.066 2.297.656.82 1.477 1.23 2.543 1.23.984 0 1.805-.328 2.46-.984.657-.656.985-1.394.985-2.379V17.066a7.285 7.285 0 0 1-3.199 1.559c-.164.082-.328.082-.492-.082a.745.745 0 0 1-.246-.574v-1.313c0-.328.082-.492.41-.656a4.746 4.746 0 0 0 2.543-1.64c.656-.82.984-1.723.984-2.79zm17.884 16.9c.984-.328 1.64-.985 2.05-1.969.411-.902.493-1.805.165-2.79-.328-.983-.902-1.722-1.805-2.296l-1.558-.984.738-1.64c.656-1.231.656-2.462 0-3.61-.574-.82-1.23-1.395-2.05-1.805l-1.56-.574.247-.82c.164-.739.246-1.231.246-1.477 0-.656-.328-1.313-.82-1.887-.493-.574-1.149-.902-1.805-.902l-1.887.164-.41-1.559a2.846 2.846 0 0 0-.985-1.558c-.492-.328-1.066-.574-1.722-.574-.82 0-1.477.328-1.969.82a2.666 2.666 0 0 0-.82 1.969v4.593c0 1.067.328 1.97.984 2.79.656.82 1.477 1.394 2.543 1.64.246.164.41.328.41.656v1.313c0 .246-.082.41-.246.574-.164.164-.328.164-.492.082-1.23-.246-2.297-.738-3.2-1.559V34.95c0 .985.329 1.723.985 2.38.656.655 1.477.983 2.461.983.984 0 1.887-.41 2.543-1.23.328-.41.656-1.148 1.066-2.297l.082-.41 1.723.328c.984.164 1.887-.082 2.707-.738.82-.656 1.23-1.559 1.23-2.625l-.41-2.215 1.56-.656z"/><defs><linearGradient id="dpaint0_linear" x1="45" y1="0" x2="6.82" y2="44.626" gradientUnits="userSpaceOnUse"><stop stop-color="#0072FF"/><stop offset=".768" stop-color="#00C6FF"/></linearGradient></defs></symbol><symbol viewBox="0 0 12 12" id="clock" xmlns="http://www.w3.org/2000/svg"><path d="M5.813 0c1.03 0 2.015.281 2.906.797a5.692 5.692 0 0 1 2.11 2.11c.515.89.796 1.874.796 2.905a5.7 5.7 0 0 1-.797 2.907 5.756 5.756 0 0 1-2.11 2.133 5.741 5.741 0 0 1-2.905.773 5.68 5.68 0 0 1-2.907-.773A5.818 5.818 0 0 1 .773 8.719 5.68 5.68 0 0 1 0 5.813a5.75 5.75 0 0 1 .773-2.908A5.755 5.755 0 0 1 2.906.796 5.7 5.7 0 0 1 5.812 0zm5.062 5.813a4.99 4.99 0 0 0-.68-2.532A5.385 5.385 0 0 0 8.344 1.43 5.145 5.145 0 0 0 5.789.75c-.914 0-1.758.234-2.531.68A5.126 5.126 0 0 0 1.43 3.28a4.912 4.912 0 0 0-.68 2.555c0 .914.21 1.758.68 2.531a4.787 4.787 0 0 0 1.851 1.828c.774.47 1.617.68 2.531.68.915 0 1.758-.21 2.532-.68a5.012 5.012 0 0 0 1.851-1.851 4.99 4.99 0 0 0 .68-2.531zM7.383 7.874c.047.047.117.07.21.07.071 0 .141-.047.188-.117l.188-.281c.047-.047.047-.117.047-.188 0-.07-.047-.14-.094-.187L6.258 5.953V2.531c0-.07-.047-.14-.094-.187-.047-.047-.117-.094-.187-.094h-.329a.297.297 0 0 0-.21.094.266.266 0 0 0-.07.187v3.75c0 .094.023.164.116.211l1.899 1.383z" fill-opacity=".5"/></symbol><symbol viewBox="0 0 32 43" id="ear" xmlns="http://www.w3.org/2000/svg"><path d="M16 7.797c2.215 0 4.102.82 5.742 2.46 1.64 1.641 2.461 3.528 2.461 5.743v1.64c0 .329-.164.575-.328.739-.164.164-.41.246-.656.246h-1.313c-.328 0-.574-.082-.738-.246-.164-.164-.246-.41-.246-.738V16c0-1.313-.492-2.46-1.477-3.445-.984-.985-2.133-1.477-3.445-1.477-1.395 0-2.543.492-3.527 1.477-.985.984-1.395 2.133-1.395 3.445 0 .656.164 1.23.656 1.64.41.493.985.657 1.641.657 1.477 0 2.79.574 3.938 1.64 1.066 1.149 1.64 2.461 1.64 3.938 0 1.559-.574 2.871-1.64 3.938-1.149 1.148-2.461 1.64-3.938 1.64h-1.64c-.329 0-.575-.082-.739-.246-.164-.164-.246-.41-.246-.738v-1.313c0-.246.082-.492.246-.656a1.04 1.04 0 0 1 .738-.328h1.641c.656 0 1.148-.164 1.64-.656.41-.41.657-.985.657-1.641s-.246-1.148-.656-1.64c-.493-.41-.985-.657-1.641-.657-1.559 0-2.871-.492-3.938-1.64-1.148-1.067-1.64-2.38-1.64-3.938 0-2.215.738-4.102 2.379-5.742 1.64-1.64 3.527-2.461 5.824-2.461zM16 .25c2.79 0 5.414.738 7.875 2.133a17.465 17.465 0 0 1 5.742 5.742c1.395 2.46 2.133 5.086 2.133 7.875 0 2.871-.738 5.496-2.133 7.957-1.476 2.461-3.363 4.348-5.742 5.66v.82c0 2.133-.574 4.102-1.64 5.907-1.067 1.804-2.462 3.281-4.266 4.347-1.805 1.067-3.774 1.559-5.907 1.559-2.132 0-4.101-.492-5.906-1.559a12.266 12.266 0 0 1-4.347-4.347C.742 34.539.25 32.57.25 30.437V16c0-2.79.656-5.414 2.133-7.875 1.394-2.379 3.281-4.266 5.742-5.742A15.32 15.32 0 0 1 16 .25zm5.906 26.004c1.805-1.067 3.2-2.543 4.266-4.348 1.066-1.804 1.64-3.773 1.64-5.906 0-2.133-.574-4.102-1.64-5.906a11.814 11.814 0 0 0-4.266-4.266c-1.804-1.066-3.773-1.64-5.906-1.64-2.133 0-4.102.574-5.906 1.64-1.805 1.067-3.281 2.461-4.348 4.266C4.68 11.898 4.187 13.867 4.187 16v14.438c0 2.214.739 4.101 2.297 5.578 1.477 1.558 3.364 2.297 5.579 2.297 2.132 0 4.019-.739 5.578-2.297 1.476-1.477 2.297-3.364 2.297-5.578V27.32l1.968-1.066z"/><defs><linearGradient id="fpaint0_linear" x1="32" y1="0" x2="-5.994" y2="31.58" gradientUnits="userSpaceOnUse"><stop stop-color="#0072FF"/><stop offset=".768" stop-color="#00C6FF"/></linearGradient></defs></symbol><symbol viewBox="0 0 44 38" id="heart" xmlns="http://www.w3.org/2000/svg"><path d="M38.57 3.5c1.97 1.723 3.282 3.773 4.02 6.07.574 2.133.574 4.348 0 6.563-.656 2.215-1.64 4.101-3.117 5.578L25.117 36.313c-.902.902-1.969 1.312-3.117 1.312-1.23 0-2.297-.41-3.117-1.313l-14.356-14.6c-1.476-1.477-2.543-3.363-3.117-5.578-.656-2.215-.574-4.43.082-6.563.656-2.297 1.969-4.347 3.938-6.07 1.476-1.313 3.28-2.133 5.332-2.46a12.449 12.449 0 0 1 5.988.491c1.969.657 3.773 1.723 5.25 3.2a13.053 13.053 0 0 1 5.168-3.2c1.969-.656 4.02-.82 6.07-.492A10.987 10.987 0 0 1 38.57 3.5zm-1.886 15.422c.984-.985 1.64-2.297 2.05-3.774a8.426 8.426 0 0 0 0-4.511c-.492-1.559-1.394-2.953-2.707-4.102-1.64-1.312-3.527-1.887-5.66-1.723-2.133.165-4.02 1.067-5.496 2.625L22 10.31l-2.871-2.871c-1.559-1.56-3.445-2.461-5.578-2.625-2.133-.165-4.02.41-5.578 1.722-1.395 1.149-2.297 2.543-2.707 4.102-.493 1.476-.493 3.035-.082 4.511.41 1.477 1.148 2.79 2.132 3.774l14.438 14.601c.164.246.328.246.492 0l14.438-14.601z"/><defs><linearGradient id="gpaint0_linear" x1="43" y1="-2" x2="4.5" y2="40" gradientUnits="userSpaceOnUse"><stop stop-color="#0072FF"/><stop offset=".768" stop-color="#00C6FF"/></linearGradient></defs></symbol><symbol viewBox="0 0 42 38" id="heartbeat" xmlns="http://www.w3.org/2000/svg"><path d="M21.82 33.36l8.942-8.86h5.66L24.609 36.148c-.984.985-2.215 1.477-3.609 1.477-1.477 0-2.625-.492-3.61-1.477L5.66 24.5h5.578l8.942 8.86c.164.245.492.328.82.328.328 0 .574-.083.82-.329zM29.121.874c1.969 0 3.938.492 5.906 1.477 2.051 1.148 3.692 2.625 4.922 4.43C41.262 8.831 42 11.128 42 13.671c0 3.117-1.066 5.824-3.117 8.203H28.055l-1.805-3.61-4.102 8.122c-.246.492-.656.738-1.148.738-.574 0-.984-.246-1.23-.738l-4.594-10.418-2.461 5.906H3.117C.984 19.496 0 16.789 0 13.672c0-2.543.656-4.84 2.05-6.89C3.2 4.976 4.84 3.5 6.974 2.351 8.859 1.367 10.828.875 12.879.875c3.035 0 5.742.984 8.121 2.871C23.297 1.86 26.004.875 29.121.875zm6.89 18.375c1.477-1.805 2.133-3.938 1.97-6.316-.165-2.133-1.149-4.02-2.79-5.66-1.64-1.641-3.691-2.462-6.07-2.462-.984 0-1.723.083-2.297.247-.82.164-1.64.574-2.46 1.23A27.6 27.6 0 0 0 21 9.16c-1.887-1.805-3.445-2.953-4.594-3.61-.984-.491-2.215-.737-3.527-.737-2.461 0-4.512.82-6.152 2.46-1.641 1.641-2.543 3.528-2.707 5.66-.247 2.38.41 4.512 1.968 6.317h4.922l2.953-7.055c.164-.492.575-.82 1.149-.82.574 0 .984.246 1.312.738l4.758 10.664 4.02-8.039c.164-.492.574-.738 1.148-.738.492 0 .902.246 1.148.738l2.297 4.512h6.317z"/><defs><linearGradient id="hpaint0_linear" x1="42" y1="-2" x2="3.5" y2="40" gradientUnits="userSpaceOnUse"><stop stop-color="#0072FF"/><stop offset=".768" stop-color="#00C6FF"/></linearGradient></defs></symbol><symbol viewBox="0 0 53 43" id="lungs" xmlns="http://www.w3.org/2000/svg"><path d="M52.422 32.242c.164.82.328 1.64.328 2.461 0 2.133-.82 3.938-2.379 5.414-1.64 1.477-3.527 2.133-5.66 2.133-.656 0-1.23 0-1.723-.164-.492-.082-1.476-.328-2.953-.82l-2.46-.657a7.513 7.513 0 0 1-4.184-2.625c-1.149-1.312-1.641-2.87-1.641-4.593v-7.22l3.938 2.626v4.594c0 .82.246 1.476.82 2.132a3.413 3.413 0 0 0 2.133 1.313l5.086 1.395c.328.081.656.081.984.081 1.312 0 2.379-.41 3.2-1.394.82-.984 1.066-2.133.737-3.61a65.656 65.656 0 0 0-7.875-17.882l-.246-.328c-.902-1.395-1.476-2.215-1.804-2.543-.328-.328-.739-.492-1.23-.492-.493 0-.985.164-1.313.492-.328.328-.492.656-.492.984v7.547l6.562 4.348c.328.246.492.574.574.902 0 .328-.082.656-.246.902l-.656 1.149c-.246.328-.574.492-.902.574-.329.082-.657 0-.985-.246L26.5 19.69l-13.535 9.024c-.328.246-.738.328-1.067.246-.328-.082-.656-.246-.82-.574l-.656-1.149a.926.926 0 0 1-.246-.902c0-.328.246-.656.574-.902l6.563-4.348v-7.547c0-.328-.247-.656-.575-.984-.328-.328-.82-.492-1.312-.492-.492 0-.903.164-1.23.492-.329.328-.903 1.148-1.723 2.543l-.246.328a61.016 61.016 0 0 0-7.875 17.883c-.41 1.476-.165 2.625.656 3.609.82.984 1.969 1.395 3.281 1.395.328 0 .656 0 .984-.083l5.086-1.394c.82-.164 1.559-.656 2.133-1.313.492-.656.82-1.312.82-2.132v-4.594l3.938-2.625v7.219c0 1.722-.574 3.28-1.64 4.593-1.15 1.313-2.544 2.215-4.184 2.625l-2.461.657c-1.559.492-2.543.738-2.953.82-.575.164-1.149.164-1.723.164-2.215 0-4.101-.656-5.66-2.133C.989 38.641.25 36.836.25 34.703c0-.82.082-1.64.328-2.46 1.805-6.645 4.594-12.962 8.367-18.95l.41-.656c.985-1.559 1.805-2.625 2.461-3.2.985-.82 2.215-1.312 3.774-1.312 1.476 0 2.789.574 3.937 1.559 1.149 1.066 1.723 2.379 1.723 3.855v4.922l2.707-1.805c.328-.246.574-.574.574-1.066V1.563c0-.329.082-.657.328-.903s.575-.41.985-.41h1.312c.328 0 .657.164.903.41.246.246.41.574.41.902V15.59c0 .492.164.82.574 1.066l2.707 1.805v-4.922c0-1.476.492-2.789 1.64-3.855 1.15-.985 2.462-1.559 4.02-1.559 1.477 0 2.79.492 3.774 1.313.574.574 1.394 1.64 2.46 3.199l.41.656c3.774 5.988 6.563 12.305 8.368 18.95z"/><defs><linearGradient id="ipaint0_linear" x1="53" y1="0" x2="16.248" y2="50.594" gradientUnits="userSpaceOnUse"><stop stop-color="#0072FF"/><stop offset=".768" stop-color="#00C6FF"/></linearGradient></defs></symbol><symbol viewBox="0 0 33 25" id="map" xmlns="http://www.w3.org/2000/svg"><path d="M31.19.25c.22 0 .384.11.602.273a.878.878 0 0 1 .274.602v18.922c0 .383-.11.71-.328.984-.22.328-.438.547-.766.657l-8.313 2.898c-.765.219-1.476.219-2.187 0l-9.406-3.336-9.297 3.445c-.11.055-.219.055-.328.055-.219 0-.438-.055-.602-.219-.219-.164-.273-.383-.273-.656V4.953c0-.328.054-.656.273-.984.219-.274.492-.492.82-.656l8.314-2.9c.328-.11.711-.164 1.094-.164.328 0 .71.055 1.093.164l9.407 3.336L30.863.305c.109 0 .218-.055.328-.055zM2.262 4.953l.055 17.664 7.875-2.898v-17.5L2.26 4.953zm9.68 14.766l8.75 3.062v-17.5L11.94 2.22v17.5zm10.5 3.062l7.93-2.734-.055-17.664L22.44 5.28v17.5z" fill-opacity=".8"/></symbol><symbol viewBox="0 0 18 14" id="mapmin" xmlns="http://www.w3.org/2000/svg"><path d="M17.5 0c.125 0 .219.063.344.156A.502.502 0 0 1 18 .5v10.813a.872.872 0 0 1-.188.562c-.125.188-.25.313-.437.375l-4.75 1.656a2.13 2.13 0 0 1-1.25 0L6 12 .687 13.969C.625 14 .563 14 .5 14a.47.47 0 0 1-.344-.125C.031 13.781 0 13.656 0 13.5V2.687c0-.187.031-.374.156-.562.125-.156.281-.281.469-.375L5.375.094C5.563.03 5.781 0 6 0c.188 0 .406.031.625.094L12 2 17.313.031c.062 0 .125-.031.187-.031zM.969 2.688L1 12.78l4.5-1.656v-10L.969 2.688zM6.5 11.124l5 1.75v-10l-5-1.75v10zm6 1.75l4.531-1.563L17 1.22l-4.5 1.656v10z" fill-opacity=".4"/></symbol><symbol viewBox="0 0 42 43" id="microscope" xmlns="http://www.w3.org/2000/svg"><path d="M39.047 38.313c.82 0 1.476.328 2.05.902.575.574.903 1.23.903 2.05 0 .329-.164.575-.328.739-.164.164-.41.246-.656.246H.984c-.328 0-.574-.082-.738-.246-.164-.164-.246-.41-.246-.738 0-.82.246-1.477.82-2.051.575-.574 1.313-.903 2.133-.903h22.64a11.13 11.13 0 0 0 5.579-1.476 11.34 11.34 0 0 0 4.02-4.102c.984-1.64 1.558-3.527 1.558-5.496a11.08 11.08 0 0 0-1.395-5.414c-.984-1.64-2.214-3.035-3.855-4.02-1.64-.984-3.363-1.558-5.25-1.722v8.367c0 .903-.328 1.723-.82 2.38-.492.737-1.23 1.23-2.051 1.476v3.035c0 .902-.328 1.64-.902 2.215-.575.574-1.23.82-2.051.82h-6.727c-.82 0-1.558-.246-2.133-.82-.574-.575-.82-1.313-.82-2.215v-3.035c-.902-.246-1.64-.739-2.133-1.477-.492-.656-.738-1.476-.738-2.379V8.207c0-.656.164-1.312.574-1.969.328-.656.82-1.148 1.477-1.558V3.285c0-.82.246-1.558.902-2.133.574-.574 1.313-.902 2.133-.902h8.203c.82 0 1.477.328 2.133.902.574.575.902 1.313.902 2.133V4.68a5.38 5.38 0 0 1 1.477 1.558c.328.657.574 1.313.574 1.969v3.855c2.625.165 5.004.903 7.219 2.297 2.215 1.395 3.937 3.2 5.25 5.414a14.64 14.64 0 0 1 1.968 7.383c0 2.215-.492 4.266-1.312 6.153a15.974 15.974 0 0 1-3.61 5.004h3.282zm-24.363-7.876h4.757v-3.28h-4.757v3.28zm7.546-5.906l.082-16.406h-1.968l-.082-3.938h-6.399v3.938h-1.968l-.082 16.324.082.082H22.23z"/><defs><linearGradient id="lpaint0_linear" x1="42" y1="0" x2="3.5" y2="42" gradientUnits="userSpaceOnUse"><stop stop-color="#0072FF"/><stop offset=".768" stop-color="#00C6FF"/></linearGradient></defs></symbol><symbol viewBox="0 0 18 29" id="mobile" xmlns="http://www.w3.org/2000/svg"><path d="M10.75 23.25c0-.438-.219-.875-.547-1.203-.328-.328-.765-.547-1.203-.547-.492 0-.93.219-1.258.547a1.696 1.696 0 0 0-.492 1.203c0 .492.164.93.492 1.258.328.328.766.492 1.258.492.438 0 .875-.164 1.203-.492.328-.328.547-.766.547-1.258zm7-20.125c0-.71-.273-1.313-.766-1.86C16.437.774 15.836.5 15.125.5H2.875c-.766 0-1.367.273-1.86.766C.47 1.812.25 2.414.25 3.125v22.75c0 .766.219 1.367.766 1.86.492.546 1.093.765 1.859.765h12.25c.71 0 1.313-.219 1.86-.766a2.514 2.514 0 0 0 .765-1.859V3.125zm-1.75 0v22.75a.91.91 0 0 1-.273.656c-.165.164-.383.219-.602.219H2.875c-.273 0-.492-.055-.656-.219-.164-.164-.219-.383-.219-.656V3.125c0-.219.055-.438.219-.602a.906.906 0 0 1 .656-.273h12.25c.219 0 .438.11.602.273a.878.878 0 0 1 .273.602z" fill-opacity=".8"/></symbol><symbol viewBox="0 0 11 16" id="mobilemin" xmlns="http://www.w3.org/2000/svg"><path d="M6.098 13c0-.25-.125-.5-.313-.688-.187-.187-.437-.312-.687-.312-.281 0-.531.125-.719.313a.97.97 0 0 0-.281.687.99.99 0 0 0 .281.719.99.99 0 0 0 .719.281c.25 0 .5-.094.687-.281.188-.188.313-.438.313-.719zm4-11.5c0-.406-.156-.75-.438-1.063C9.348.157 9.004 0 8.598 0h-7C1.16 0 .817.156.535.438A1.416 1.416 0 0 0 .098 1.5v13c0 .438.125.781.437 1.063.282.312.625.437 1.063.437h7c.406 0 .75-.125 1.062-.438a1.43 1.43 0 0 0 .438-1.062v-13zm-1 0v13a.518.518 0 0 1-.156.375.47.47 0 0 1-.344.125h-7c-.156 0-.281-.031-.375-.125-.094-.094-.125-.219-.125-.375v-13a.47.47 0 0 1 .125-.344A.518.518 0 0 1 1.598 1h7c.125 0 .25.063.344.156a.502.502 0 0 1 .156.344z" fill-opacity=".4"/></symbol><symbol viewBox="0 0 53 43" id="scalpel-path" xmlns="http://www.w3.org/2000/svg"><path d="M42.086 1.398c1.559 1.149 2.46 2.707 2.707 4.676.246 1.969-.246 3.61-1.559 5.086L29.945 26.746c-.656.738-1.394 1.067-2.297 1.067h-.902c-.656 2.789-2.05 5.003-4.02 6.644h-.081c-3.118 2.543-6.563 4.512-10.418 5.824A37.03 37.03 0 0 1 .25 42.25l13.7-14.93a1.17 1.17 0 0 1-.493-.984c0-.328.082-.738.41-1.066L33.144 2.71a7.625 7.625 0 0 1 2.38-1.804c.984-.41 1.968-.656 2.953-.656 1.312 0 2.46.41 3.609 1.148zM20.184 31.422c1.148-.902 1.968-2.133 2.543-3.61h-3.938L10.75 36.59c3.445-1.149 6.645-2.871 9.434-5.168zM40.28 8.617a2.787 2.787 0 0 0 .657-2.133c-.165-.82-.493-1.394-1.149-1.886-.41-.246-.82-.41-1.312-.41-.985 0-1.723.41-2.38 1.148L20.267 23.875h6.972L40.281 8.617zm0 29.695c.164 0 .246.083.41.247.164.164.246.246.246.41v2.625c0 .164-.081.328-.246.492-.164.164-.246.164-.41.164h-6.56c-.164 0-.328 0-.492-.164-.164-.164-.164-.328-.164-.492v-2.625c0-.164 0-.246.164-.41.164-.164.328-.246.492-.246h6.562zm-11.812 0c.164 0 .246.083.41.247.164.164.246.246.246.41v2.625c0 .164-.082.328-.246.492-.164.164-.246.164-.41.164h-6.563c-.164 0-.328 0-.492-.164-.164-.164-.164-.328-.164-.492v-2.625c0-.164 0-.246.164-.41.164-.164.328-.246.492-.246h6.563zm23.625 0c.164 0 .246.083.41.247.164.164.246.246.246.41v2.625c0 .164-.082.328-.246.492-.164.164-.246.164-.41.164H45.53c-.164 0-.328 0-.492-.164-.164-.164-.164-.328-.164-.492v-2.625c0-.164 0-.246.164-.41.164-.164.328-.246.492-.246h6.563z"/><defs><linearGradient id="opaint0_linear" x1="53" y1="0" x2="16.248" y2="50.594" gradientUnits="userSpaceOnUse"><stop stop-color="#0072FF"/><stop offset=".768" stop-color="#00C6FF"/></linearGradient></defs></symbol><symbol viewBox="0 0 16 16" id="search" xmlns="http://www.w3.org/2000/svg"><path d="M15.906 15.063a.355.355 0 0 1 .094.25c0 .124-.031.218-.094.28l-.312.282a.382.382 0 0 1-.281.125c-.126 0-.188-.031-.25-.125l-4.032-4.031c-.094-.063-.125-.125-.125-.25v-.313c-.594.563-1.281.969-2.031 1.281-.75.313-1.563.438-2.375.438-1.188 0-2.281-.281-3.281-.875A6.035 6.035 0 0 1 .875 9.781C.281 8.781 0 7.687 0 6.5c0-1.188.281-2.25.875-3.25.563-1 1.344-1.781 2.344-2.375C4.219.312 5.313 0 6.5 0c1.188 0 2.25.313 3.25.875a6.653 6.653 0 0 1 2.375 2.375c.563 1 .875 2.063.875 3.25a6.22 6.22 0 0 1-.469 2.406c-.312.75-.719 1.438-1.25 2h.313c.094 0 .187.063.281.125l4.031 4.031zM6.5 12c1 0 1.906-.219 2.75-.719.844-.5 1.5-1.156 2-2 .5-.844.75-1.781.75-2.781 0-1-.25-1.906-.75-2.75a5.576 5.576 0 0 0-2-2C8.406 1.25 7.5 1 6.5 1s-1.938.25-2.781.75c-.844.5-1.5 1.156-2 2C1.219 4.594 1 5.5 1 6.5s.219 1.938.719 2.781c.5.844 1.156 1.5 2 2 .844.5 1.781.719 2.781.719z"/></symbol><symbol viewBox="0 0 43 43" id="star-of-life" xmlns="http://www.w3.org/2000/svg"><path d="M24.625 42.25c.902 0 1.64-.246 2.297-.902.656-.657.984-1.395.984-2.38v-7.546l7.465 3.773c.738.492 1.559.657 2.461.41.82-.246 1.559-.738 2.05-1.558l2.626-4.594c.492-.738.574-1.558.328-2.46-.246-.821-.738-1.477-1.477-1.97l-6.644-3.773 6.644-3.773c.739-.41 1.23-1.067 1.477-1.97.246-.82.164-1.64-.328-2.46l-2.625-4.594c-.492-.738-1.23-1.23-2.051-1.476-.902-.247-1.723-.165-2.46.328l-7.466 3.773V3.531c0-.902-.328-1.64-.984-2.297C26.266.578 25.527.25 24.625.25h-5.25c-.984 0-1.723.328-2.379.984-.656.657-.902 1.395-.902 2.297v7.547L8.629 7.305c-.82-.492-1.64-.575-2.461-.328a3.45 3.45 0 0 0-2.05 1.476l-2.626 4.594c-.492.82-.656 1.64-.41 2.46.246.903.738 1.56 1.559 1.97l6.644 3.773-6.644 3.773c-.82.493-1.313 1.149-1.559 1.97-.246.902-.082 1.722.41 2.46l2.625 4.594c.492.82 1.149 1.312 2.051 1.559.82.246 1.64.081 2.46-.41l7.466-3.774v7.547c0 .984.246 1.722.902 2.379.656.656 1.395.902 2.379.902h5.25zm-4.594-3.938V24.614l-12.797 6.89-2.05-3.444 12.796-6.81-12.796-6.809 2.05-3.445 12.797 6.89V4.189h3.938v13.699l12.797-6.89 2.05 3.444L26.02 21.25l12.797 6.809-2.05 3.445-12.797-6.89v13.698h-3.94z"/><defs><linearGradient id="qpaint0_linear" x1="43" y1="0" x2="4.5" y2="42" gradientUnits="userSpaceOnUse"><stop stop-color="#0072FF"/><stop offset=".768" stop-color="#00C6FF"/></linearGradient></defs></symbol><symbol viewBox="0 0 42 43" id="stethoscope" xmlns="http://www.w3.org/2000/svg"><path d="M9.844 27.648c-2.79-.492-5.168-1.804-7.055-4.02C.902 21.497 0 18.954 0 16V2.547c0-.246 0-.492.164-.656.164-.164.328-.246.574-.329L6.48.25c.247 0 .493 0 .739.164.164.164.328.41.41.574l.492 1.969c0 .328 0 .574-.164.738-.164.246-.41.41-.574.41l-3.446.739V16c0 2.215.739 4.102 2.297 5.578 1.559 1.559 3.446 2.297 5.579 2.297 2.132 0 4.019-.738 5.578-2.379 1.476-1.558 2.297-3.445 2.297-5.578V4.844l-3.446-.739c-.246 0-.41-.164-.574-.41-.164-.164-.246-.41-.164-.738l.492-1.969c0-.164.164-.41.41-.574.164-.164.41-.164.739-.164l5.742 1.313c.164.082.328.164.492.328.164.164.246.41.246.574V16c0 2.953-.984 5.496-2.871 7.629-1.887 2.215-4.184 3.527-6.973 4.02v1.476c0 1.64.41 3.2 1.313 4.594.82 1.476 2.05 2.543 3.527 3.363 1.477.82 3.2 1.23 5.004 1.23 1.805 0 3.445-.41 4.922-1.23 1.476-.82 2.707-1.887 3.61-3.363.82-1.395 1.312-2.953 1.312-4.594v-8.203c-1.395-.328-2.543-1.149-3.364-2.297-.82-1.148-1.23-2.46-1.23-3.938 0-1.804.656-3.363 1.969-4.675 1.312-1.313 2.87-1.887 4.675-1.887 1.805.082 3.282.738 4.594 2.05C41.343 11.489 42 12.966 42 14.77c0 1.476-.492 2.707-1.313 3.855-.902 1.148-1.968 1.969-3.28 2.297v8.203c0 2.379-.657 4.594-1.887 6.563-1.23 2.05-2.872 3.69-5.004 4.84-2.133 1.148-4.43 1.722-6.891 1.722-2.543 0-4.84-.574-6.973-1.723-2.133-1.148-3.773-2.789-5.004-4.84-1.23-1.968-1.804-4.183-1.804-6.562v-1.477zm25.593-15.585c-.738 0-1.394.328-1.886.82a2.545 2.545 0 0 0-.739 1.805c0 .738.247 1.394.739 1.886s1.148.738 1.886.738c.657 0 1.313-.246 1.805-.738s.82-1.148.82-1.887c0-.656-.328-1.312-.82-1.804-.492-.492-1.148-.82-1.804-.82z"/><defs><linearGradient id="rpaint0_linear" x1="42" y1="0" x2="3.5" y2="42" gradientUnits="userSpaceOnUse"><stop stop-color="#0072FF"/><stop offset=".768" stop-color="#00C6FF"/></linearGradient></defs></symbol><symbol viewBox="0 0 42 43" id="stomach" xmlns="http://www.w3.org/2000/svg"><path d="M32.648 8.207c1.723.164 3.282.82 4.758 1.805 1.395 1.066 2.543 2.379 3.364 4.02.82 1.64 1.23 3.28 1.23 5.085v7.137c0 3.2-.902 6.07-2.543 8.695-1.723 2.625-3.938 4.512-6.727 5.824-2.953 1.395-5.988 1.805-9.187 1.313-2.871-.41-5.578-1.64-8.04-3.691l-3.034-2.543c-1.067-.82-2.297-1.149-3.61-1.149-1.312.082-2.46.574-3.445 1.477-.984.902-1.476 2.05-1.476 3.363v1.395c0 .41-.165.738-.41.984-.247.246-.575.328-.903.328H1.312c-.41 0-.738-.082-.984-.328S0 41.348 0 40.938v-1.313c0-1.805.41-3.445 1.313-4.922.82-1.476 2.05-2.707 3.527-3.61a10.34 10.34 0 0 1 5.004-1.312h5.25c1.64 0 3.035-.574 4.183-1.722C20.426 26.91 21 25.516 21 23.875v-5.25l.082-.656H21c-1.805 0-3.527-.41-5.004-1.313a9.11 9.11 0 0 1-3.527-3.527c-.903-1.477-1.313-3.2-1.313-5.004V1.562c0-.328.082-.656.328-.902s.575-.41.985-.41h1.312c.328 0 .656.164.903.41.246.246.41.574.41.902v6.563c0 1.64.574 3.035 1.722 4.184C17.965 13.457 19.36 14.03 21 14.03h1.066c.985-1.969 2.38-3.445 4.348-4.594 1.887-1.066 3.938-1.476 6.234-1.23zm-6.644 30.105c2.625 0 4.922-.738 7.055-2.378 2.132-1.559 3.527-3.61 4.347-6.07l-1.066.081c-2.38 0-4.348-.574-5.988-1.886-.82-.493-1.723-.82-2.872-.985-1.148-.164-2.214 0-3.199.328v-.082c-.656 1.805-1.722 3.2-3.199 4.348-1.477 1.148-3.2 1.805-5.086 1.969l2.379 1.968c2.215 1.805 4.758 2.708 7.629 2.708zm12.058-12.55v-7.137c0-1.805-.656-3.281-1.968-4.594-1.313-1.312-2.79-1.969-4.594-1.969-1.805 0-3.363.657-4.676 1.97-1.312 1.312-1.887 2.788-1.887 4.593v4.594c1.313-.164 2.707-.164 4.102.164 1.395.328 2.625.82 3.61 1.558.656.493 1.558.82 2.542.985.985.164 1.887.164 2.871-.164z"/><defs><linearGradient id="spaint0_linear" x1="42" y1="0" x2="3.5" y2="42" gradientUnits="userSpaceOnUse"><stop stop-color="#0072FF"/><stop offset=".768" stop-color="#00C6FF"/></linearGradient></defs></symbol><symbol viewBox="0 0 239 151" id="ticket" xmlns="http://www.w3.org/2000/svg"><path d="M152.482 55.851l4.965-5.442 5.418 4.943-4.965 5.442-5.418-4.943zm10.836 9.886l4.965-5.442 5.418 4.942-4.966 5.443-5.417-4.943zm10.835 9.886l4.965-5.443 5.418 4.943-4.965 5.442-5.418-4.942zm-32.506-29.657l4.965-5.443 5.418 4.943-4.966 5.443-5.417-4.943zm-10.836-9.886l4.965-5.442 5.418 4.943-4.965 5.442-5.418-4.943zm-10.835-9.885l4.965-5.443 5.418 4.943-4.966 5.443-5.417-4.943zM109.14 16.31l4.965-5.443 5.418 4.943-4.965 5.442-5.418-4.943zm34.757-38.097l4.965-5.443 5.418 4.943-4.965 5.442-5.418-4.942zM19.766 114.272l4.965-5.442 5.418 4.942-4.965 5.443-5.418-4.943zm65.013 59.313l4.965-5.442 5.418 4.943-4.965 5.442-5.418-4.943zM208.91 37.526l4.965-5.443 5.418 4.943-4.965 5.443-5.418-4.943z"/><path d="M33.989 142.207a3.676 3.676 0 0 1-5.191.249l-27.09-24.713a3.676 3.676 0 0 1-.225-5.193L145.474-45.279a3.676 3.676 0 0 1 5.192-.25l27.089 24.714a3.675 3.675 0 0 1 .226 5.193c-6.856 7.514-6.349 19.138 1.131 25.963 7.48 6.824 19.102 6.265 25.958-1.25a3.675 3.675 0 0 1 5.191-.25l27.089 24.715a3.675 3.675 0 0 1 .226 5.192L93.584 196.577a3.675 3.675 0 0 1-5.191.25l-27.089-24.714a3.676 3.676 0 0 1-.226-5.193c6.855-7.514 6.349-19.138-1.132-25.962-7.48-6.825-19.102-6.266-25.957 1.249zm33.454-4.056c7.237 8.804 7.784 21.354 1.343 30.816l21.863 19.946L229.676 36.527 207.812 16.58c-10.988 9.056-27.193 7.52-36.196-3.433-7.237-8.804-7.784-21.353-1.343-30.815L148.41-37.615 9.383 114.772l21.863 19.946c10.988-9.056 27.194-7.519 36.197 3.433z"/><path d="M92.44 50.935c5.485-6.011 14.782-6.459 20.767-.999 5.984 5.46 6.389 14.759.905 20.77-5.485 6.012-14.782 6.46-20.766 1-5.985-5.46-6.39-14.76-.905-20.77zm16.254 14.829c2.742-3.006 2.54-7.656-.453-10.386-2.992-2.73-7.64-2.506-10.383.5-2.742 3.006-2.54 7.655.453 10.385 2.992 2.73 7.64 2.506 10.383-.5zm-13.538 47.482c5.484-6.011 14.781-6.459 20.766-.999 5.984 5.46 6.389 14.759.905 20.77-5.485 6.012-14.782 6.459-20.766.999-5.985-5.459-6.39-14.758-.905-20.77zm16.253 14.828c2.742-3.005 2.54-7.655-.453-10.385-2.992-2.73-7.64-2.506-10.383.5-2.742 3.006-2.54 7.655.453 10.385 2.992 2.73 7.641 2.506 10.383-.5zM62.937 90.297l83.062-3.996.32 7.343-83.062 3.997-.32-7.344z"/></symbol><symbol viewBox="0 0 24 38" id="venus" xmlns="http://www.w3.org/2000/svg"><path d="M23.813 12.688c0 2.953-.985 5.496-2.872 7.628-1.886 2.215-4.183 3.528-6.972 4.02v4.758h3.61c.245 0 .491.164.655.328.164.164.328.41.328.656v1.969c0 .328-.164.574-.328.738-.164.164-.41.246-.656.246h-3.61v3.61c0 .328-.163.574-.327.738-.164.164-.41.246-.657.246h-1.968c-.329 0-.575-.082-.739-.246-.164-.164-.246-.41-.246-.738v-3.61h-3.61c-.327 0-.573-.082-.737-.246-.164-.164-.247-.41-.247-.738v-1.969c0-.246.083-.492.247-.656a1.04 1.04 0 0 1 .738-.328h3.61v-4.758c-2.79-.492-5.169-1.805-7.055-4.02-1.887-2.132-2.79-4.675-2.79-7.628 0-2.133.493-4.102 1.56-5.907 1.065-1.804 2.542-3.199 4.347-4.265C7.898 1.449 9.867.875 12 .875c2.133 0 4.102.574 5.906 1.64a11.814 11.814 0 0 1 4.266 4.266c1.066 1.805 1.64 3.774 1.64 5.907zm-19.688 0c0 2.214.738 4.101 2.297 5.578 1.476 1.558 3.363 2.297 5.578 2.297 2.133 0 4.02-.739 5.578-2.297 1.477-1.477 2.297-3.364 2.297-5.578 0-2.133-.82-4.02-2.297-5.579C16.02 5.633 14.133 4.813 12 4.813c-2.215 0-4.102.82-5.578 2.296-1.559 1.559-2.297 3.446-2.297 5.579z"/><defs><linearGradient id="upaint0_linear" x1="24" y1="-2" x2="-10.698" y2="19.63" gradientUnits="userSpaceOnUse"><stop stop-color="#0072FF"/><stop offset=".768" stop-color="#00C6FF"/></linearGradient></defs></symbol></svg>